<!--?xml version="1.0" encoding="utf-8"?-->
<!-- Generator: Adobe Illustrator 18.1.1, SVG Export Plug-In . SVG Version: 6.00 Build 0)  -->

<svg version="1.1" id="_x31_0" xmlns="http://www.w3.org/2000/svg" xmlns:xlink="http://www.w3.org/1999/xlink" x="0px" y="0px" viewBox="0 0 512 512" style="width: 256px; height: 256px; opacity: 1;" xml:space="preserve">
<style type="text/css">
	.st0{fill:#374149;}
</style>
<g>
	<path class="st0" d="M243.92,291.195c-25.039-36.93-47.641-41.289-56.902-41.289h-0.492c-8.098,0.074-17.035,3.867-21.297,31.293
		c-0.566,3.668-1.328,9.012-2.238,15.39c-1.16,8.321-2.488,18.465-3.89,29.274c26.394-1.43,57.07-13.195,84.969-34.446
		C244.017,291.344,243.971,291.27,243.92,291.195z" style="fill: rgb(75, 75, 75);"></path>
	<path class="st0" d="M273.76,418.66c6.45-0.343,8.566-2.93,9.258-3.793c3.199-3.938,2.34-10.094,2.34-10.141l-1.402-8.226
		c-0.148-0.859-0.297-1.992-0.492-3.348l-0.05-0.343c-0.665-5.246-1.895-14.305-5.172-26.618
		c-2.262-8.434-5.598-18.457-10.301-29.71c-0.832-2.07-1.657-4.137-2.543-6.215c-0.019,0.027-0.039,0.051-0.058,0.078
		c-0.024-0.062-0.043-0.114-0.07-0.172c-32.672,44.859-78.989,66.648-110.996,49.367c-0.394-0.215-0.774-0.43-1.157-0.645
		l-0.406-0.297c-0.004,0.023-0.004,0.043-0.008,0.066c-0.051-0.031-0.102-0.058-0.153-0.086c-0.934,7.805-1.722,14.746-2.289,20.285
		c-0.023,0.246-0.074,0.496-0.098,0.738c-0.492,5.05-0.446,11.844,2.855,15.512c3.25,3.57,9.207,3.57,11.473,3.57
		c0.691,0,1.305-0.023,1.871-0.023l1.258-0.023h0.074c1.23,0,4.207,0.023,8.516,0.074h1.578c13.762,0.148,39.344,0.367,61.184,0.367
		C256.256,419.078,267.975,418.957,273.76,418.66z" style="fill: rgb(75, 75, 75);"></path>
	<path class="st0" d="M431.357,304.797c-18.32-60.957-39.867-91.336-71.519-114.879c-24.137-17.953-87.52-48-87.52-48h-126.48
		l-8.879,7.36c-21.602,17.922-36,40.961-46.801,74.722c-11.519,36.16-18.562,142.477-18.562,202.718
		c0,47.039,38.242,85.282,85.203,85.282h0.238c18.718-0.082,140.801-0.082,170.078,0h0.242c31.68,0,57.282-7.602,76.238-22.641
		c22.082-17.602,34.242-44,36-78.402C441.276,380.477,441.115,337.359,431.357,304.797z M382.158,377.68
		c-1.625,2.617-3.347,4.66-5.125,6.218c-0.02,0.016-0.039,0.031-0.054,0.047c-2.633,2.289-5.391,3.5-8.126,3.918
		c-0.082,0.012-0.16,0.027-0.238,0.039c-10.183,1.382-20.05-8.25-22.297-15.266c-3.602-11.598-15.519-52.078-22.48-68.078
		c-5.84-13.519-23.442-42.398-28.242-51.519c-4.797-9.122-4.558-24.961,5.68-30.879c10.242-5.922,21.922-4.562,34,3.52
		c14.16,9.519,31.441,36.398,40.562,56.957C384.877,302.797,396.077,355.117,382.158,377.68z M175.998,441.359
		c-4.32,0-7.199-0.082-8.242-0.082l-1.039,0.082h-2.238c-12.161,0-21.68-3.679-28.242-11.042
		c-7.199-7.918-10.078-19.039-8.558-33.039c0.078-1.52,0.238-3.118,0.48-4.801c1.039-9.68,2.558-22.477,4.238-36.238
		c1.282-10.481,2.718-21.52,4.082-31.922c1.519-11.52,2.957-22.399,4.16-31.2c0.878-6.398,1.598-11.679,2.16-15.437
		c5.199-33.203,19.84-50.161,43.519-50.481h0.641c15.84,0,44.957,6.961,74.477,49.359c1.84,2.719,3.762,5.68,5.679,8.719
		c2.082,3.359,4.161,6.882,6.242,10.64c2.238,3.922,4.238,7.762,6.16,11.52c8.879,17.359,14.641,32.722,18.481,45.519
		c5.278,17.36,6.961,30,7.84,36.801l0.078,0.321c0.161,1.121,0.242,2,0.402,2.64l1.36,8.321c0.48,2.878,2.16,16.801-7.039,28.078
		c-4.242,5.2-12,11.442-25.68,12.161c-6.242,0.32-18.32,0.48-36,0.48c-21.922,0-47.602-0.238-61.363-0.398H175.998z" style="fill: rgb(75, 75, 75);"></path>
	<path class="st0" d="M266.397,128.019l-3.84-44.64c-0.48-5.473-5.598-9.723-11.679-9.723h-83.762
		c-6.078,0-11.199,4.25-11.679,9.723l-3.535,41.098l-0.305,3.382h0.016l-0.016,0.16H266.397z" style="fill: rgb(75, 75, 75);"></path>
	<path class="st0" d="M249.631,59.313l-8.149-50.817c-0.789-4.902-5-8.496-9.972-8.496h-45.031c-4.95,0-9.161,3.594-9.95,8.496
		l-7.039,43.89l-1.11,6.766h0.024l-0.024,0.161H249.631z" style="fill: rgb(75, 75, 75);"></path>
</g>
</svg>
