<?xml version="1.0" encoding="UTF-8" standalone="no"?>
<!-- Generator: Adobe Illustrator 10.0, SVG Export Plug-In . SVG Version: 3.0.0 Build 77)  -->

<svg
   xmlns:i="http://ns.adobe.com/AdobeIllustrator/10.0/"
   xmlns:dc="http://purl.org/dc/elements/1.1/"
   xmlns:cc="http://creativecommons.org/ns#"
   xmlns:rdf="http://www.w3.org/1999/02/22-rdf-syntax-ns#"
   xmlns:svg="http://www.w3.org/2000/svg"
   xmlns="http://www.w3.org/2000/svg"
   xmlns:sodipodi="http://sodipodi.sourceforge.net/DTD/sodipodi-0.dtd"
   xmlns:inkscape="http://www.inkscape.org/namespaces/inkscape"
   i:rulerOrigin="0 0"
   i:viewOrigin="193 439"
   space="preserve"
   i:pageBounds="0 792 612 0"
   viewBox="0 0 774.76858 273.87949"
   enable-background="new 0 0 224.819 86.686"
   overflow="visible"
   id="svg2"
   version="1.1"
   inkscape:version="0.92.1 r15371"
   width="100%"
   height="100%"
   sodipodi:docname="margarinepack.svg"
   style="overflow:visible">
  <defs
     id="defs43" />
  <sodipodi:namedview
     pagecolor="#ffffff"
     bordercolor="#666666"
     borderopacity="1"
     objecttolerance="10"
     gridtolerance="10"
     guidetolerance="10"
     inkscape:pageopacity="0"
     inkscape:pageshadow="2"
     inkscape:window-width="1366"
     inkscape:window-height="706"
     id="namedview41"
     showgrid="false"
     inkscape:zoom="0.40120419"
     inkscape:cx="213.63638"
     inkscape:cy="141.35068"
     inkscape:window-x="-8"
     inkscape:window-y="-8"
     inkscape:window-maximized="1"
     inkscape:current-layer="g5772"
     fit-margin-top="0"
     fit-margin-left="0"
     fit-margin-right="0"
     fit-margin-bottom="0" />
  <metadata
     id="metadata39">
    <rdf:RDF>
      <cc:Work>
        <dc:format>image/svg+xml</dc:format>
        <dc:type
           rdf:resource="http://purl.org/dc/dcmitype/StillImage" />
        <cc:license
           rdf:resource="http://creativecommons.org/licenses/publicdomain/" />
        <dc:publisher>
          <cc:Agent
             rdf:about="http://openclipart.org/">
            <dc:title>Openclipart</dc:title>
          </cc:Agent>
        </dc:publisher>
        <dc:title />
        <dc:date>2007-11-26T20:08:10</dc:date>
        <dc:description>This Clip Art is part of a fast food menu set. Search for &quot;fastfood&quot; to find all.</dc:description>
        <dc:source>https://openclipart.org/detail/9076/fast-food-lunch-dinner-corn-by-gerald_g</dc:source>
        <dc:creator>
          <cc:Agent>
            <dc:title>Gerald_G</dc:title>
          </cc:Agent>
        </dc:creator>
        <dc:subject>
          <rdf:Bag>
            <rdf:li>butter</rdf:li>
            <rdf:li>colouring book</rdf:li>
            <rdf:li>corn</rdf:li>
            <rdf:li>fastfood</rdf:li>
            <rdf:li>food</rdf:li>
            <rdf:li>lunch</rdf:li>
            <rdf:li>menu</rdf:li>
          </rdf:Bag>
        </dc:subject>
      </cc:Work>
      <cc:License
         rdf:about="http://creativecommons.org/licenses/publicdomain/">
        <cc:permits
           rdf:resource="http://creativecommons.org/ns#Reproduction" />
        <cc:permits
           rdf:resource="http://creativecommons.org/ns#Distribution" />
        <cc:permits
           rdf:resource="http://creativecommons.org/ns#DerivativeWorks" />
      </cc:License>
    </rdf:RDF>
  </metadata>
  <g
     id="g5772">
    <g
       id="g5857">
      <path
         style="fill:#fff1ab;fill-opacity:1;stroke:#554400;stroke-width:3;stroke-miterlimit:4;stroke-opacity:1"
         d="m 173.23442,18.477309 253.66348,0 c 17.37557,0 15.23376,6.637336 10.39794,23.326402 L 378.01127,246.40269 C 373.17545,263.09177 305.83463,257.3216 288.45906,257.3216 202.28502,261.06344 104.0962,273.97048 20.83714,249.56692 4.1630548,244.67968 -5.3153844,160.60244 7.3373378,148.69366 L 120.9047,41.803711 C 133.55741,29.89494 155.85886,18.477309 173.23442,18.477309 z"
         id="rect3155"
         inkscape:connector-curvature="0"
         sodipodi:nodetypes="ssssccsss" />
      <path
         style="fill:#abafc8;fill-opacity:1;stroke:#554400;stroke-width:3;stroke-miterlimit:4;stroke-opacity:1"
         d="M 336.50915,127.06965 773.26861,3.6933648 772.43869,127.06965 632.7544,272.3795 l -435.92954,0 -0.78223,-124.47298 z"
         id="rect3050"
         inkscape:connector-curvature="0"
         sodipodi:nodetypes="ccccccc" />
      <rect
         style="fill:#abafc8;fill-opacity:1;stroke:#554400;stroke-width:3.53326726;stroke-miterlimit:4;stroke-opacity:1;stroke-dasharray:none"
         id="rect3046"
         width="435.92953"
         height="201.56055"
         x="338.47821"
         y="2.8412821"
         transform="matrix(1,0,-0.69301407,0.72092406,0,0)" />
      <path
         style="fill:none;stroke:#554400;stroke-width:3;stroke-linecap:butt;stroke-linejoin:miter;stroke-opacity:1"
         d="m 195.38297,147.90652 0,123.92462"
         id="path3052"
         inkscape:connector-curvature="0" />
      <path
         inkscape:connector-curvature="0"
         id="path3054"
         d="m 632.95753,147.90652 0,123.92462"
         style="fill:none;stroke:#554400;stroke-width:3;stroke-linecap:butt;stroke-linejoin:miter;stroke-opacity:1" />
      <path
         style="fill:none;stroke:#554400;stroke-width:3;stroke-linecap:butt;stroke-linejoin:miter;stroke-opacity:1"
         d="m 772.78398,1.5 0,123.92462"
         id="path3056"
         inkscape:connector-curvature="0" />
      <g
         id="flowRoot3059"
         style="font-style:normal;font-variant:normal;font-weight:normal;font-stretch:normal;line-height:0.01%;font-family:Homespun;-inkscape-font-specification:Homespun;letter-spacing:0px;word-spacing:0px;fill:#000000;fill-opacity:1;stroke:none"
         transform="matrix(1.4568049,0,0,2.0495492,1225.3548,570.33895)"
         aria-label="Margarine">
        <path
           id="path5774"
           style="font-style:normal;font-variant:normal;font-weight:normal;font-stretch:normal;font-size:40px;line-height:1.25;font-family:'AR JULIAN';-inkscape-font-specification:'AR JULIAN'"
           d="m -623.62695,-182.10173 q -0.78125,0.97656 -1.60157,2.30469 -0.82031,1.28906 -1.75781,2.69531 -0.89844,1.40625 -1.91406,2.8125 -1.01563,1.36719 -2.1875,2.46094 -0.54688,-0.42969 -1.32813,-1.28907 -0.74218,-0.89843 -1.60156,-1.99218 -0.82031,-1.09375 -1.67969,-2.22657 -0.85937,-1.17187 -1.5625,-2.14843 -0.70312,-0.97657 -1.25,-1.60157 -0.50781,-0.66406 -0.66406,-0.70312 -0.0391,0.0781 -0.0781,0.19531 0,0.11719 0,0.58594 0,0.42969 0,1.32812 0,0.89844 0,2.5 0,1.60157 0,4.0625 0,2.42188 0,5.9375 0,0.82032 1.36718,1.5625 0.39063,0.19532 0.74219,0.42969 0.35156,0.23438 0.3125,0.54688 -0.0781,0.42968 -0.27344,0.74218 -0.19531,0.3125 -0.74218,0.3125 h -6.25 q -0.97657,0 -0.97657,-1.05468 0,-0.39063 1.21094,-1.01563 1.25,-0.66406 1.25,-1.52344 v -19.88281 q 0,-1.05469 -1.25,-1.48437 -1.21094,-0.39063 -1.21094,-1.09375 0.23438,-0.27344 0.42969,-0.66407 0.19531,-0.39062 0.54688,-0.39062 h 4.88281 q 0.50781,0.27344 1.28906,1.17187 0.78125,0.85938 1.67969,2.03125 0.89844,1.17188 1.83594,2.53907 0.9375,1.32812 1.75781,2.5 0.82031,1.17187 1.48437,2.07031 0.66407,0.85937 0.97657,1.09375 0.27343,-0.0781 0.78125,-0.78125 0.54687,-0.70313 1.17187,-1.67969 0.625,-0.97656 1.25,-2.07031 0.66406,-1.13281 1.21094,-2.03125 0.54687,-0.9375 0.85937,-1.52344 0.3125,-0.625 0.3125,-0.58594 1.79688,-2.73437 3.04688,-2.73437 h 5.58594 q 0.97656,0 0.97656,1.05469 0,0.39062 -1.21094,1.01562 -1.17187,0.625 -1.17187,1.5625 v 19.88281 q 0,0.82032 1.32812,1.5625 0.39063,0.19532 0.70313,0.35157 0.35156,0.15625 0.35156,0.625 0,0.39062 -0.23438,0.74218 -0.19531,0.3125 -0.74218,0.3125 h -9.10157 q -0.9375,0 -0.9375,-1.05468 0,-0.39063 1.21094,-1.01563 1.17188,-0.625 1.17188,-1.52344 z" />
        <path
           id="path5776"
           style="font-style:normal;font-variant:normal;font-weight:normal;font-stretch:normal;font-size:40px;line-height:1.25;font-family:'AR JULIAN';-inkscape-font-specification:'AR JULIAN'"
           d="m -602.2207,-163.58611 q -0.89844,0 -0.89844,-0.85937 0,-0.50781 0.66406,-0.74219 0.74219,-0.27344 1.13281,-0.66406 0.39063,-0.39063 0.23438,-0.82031 l -0.9375,-3.00782 q -0.85938,-0.19531 -1.875,-0.15625 -1.32813,0.3125 -2.30469,0 -0.89844,-0.27343 -0.89844,-1.01562 0,-0.66406 0.46875,-0.85938 0.50782,-0.23437 1.44532,-0.23437 0.50781,0 1.13281,0.0391 0.66406,0 0.9375,-0.3125 -0.0391,-0.35156 -0.35156,-1.28906 -0.3125,-0.97656 -0.70313,-2.03125 -0.35156,-1.05469 -0.70312,-1.95313 -0.35157,-0.9375 -0.46875,-1.25 -0.39063,0.85938 -0.97657,2.46094 -0.54687,1.5625 -1.32812,3.78906 -0.89844,2.5 -1.28906,4.0625 -0.39063,1.52344 -0.39063,2.07032 0,0.82031 0.82031,1.09375 0.85938,0.35156 0.85938,0.82031 0,0.85937 -0.89844,0.85937 h -5.07812 q -0.42969,0 -0.54688,-0.23437 -0.0781,-0.23438 -0.0781,-0.66406 0.85937,-0.66407 1.5625,-1.28907 0.74218,-0.625 0.97656,-1.25 1.52344,-4.29687 2.85156,-8.55468 1.32813,-4.25782 2.77344,-8.63282 0.19531,-0.54687 0.70312,-0.82031 0.50782,-0.3125 1.05469,-0.3125 0.66406,0 1.36719,0.27344 0.74219,0.23437 0.9375,0.74219 1.52344,4.29687 3.00781,8.55468 1.52344,4.21875 3.00781,8.51563 0.19532,0.46875 0.625,0.78125 0.46875,0.3125 1.32813,0.97656 0.42969,0.3125 0.78125,0.58594 0.35156,0.23437 0.35156,0.46875 0,0.85937 -0.85937,0.85937 z" />
        <path
           id="path5778"
           style="font-style:normal;font-variant:normal;font-weight:normal;font-stretch:normal;font-size:40px;line-height:1.25;font-family:'AR JULIAN';-inkscape-font-specification:'AR JULIAN'"
           d="m -576.47852,-163.58611 q -1.21093,0 -4.29687,-4.45312 -2.96875,-4.41406 -2.96875,-5.82031 0,-0.50782 2.14844,-1.36719 1.09375,-0.42969 1.60156,-1.40625 0.50781,-1.01563 0.50781,-2.42188 0,-0.70312 -0.19531,-1.36718 -0.15625,-0.70313 -0.54688,-1.25 -0.35156,-0.54688 -0.9375,-0.89844 -0.54687,-0.35156 -1.32812,-0.39063 -0.46875,0 -0.9375,0.11719 -0.46875,0.11719 -0.89844,0.35156 -0.39062,0.23438 -0.66406,0.58594 -0.23438,0.35156 -0.23438,0.78125 v 14.64844 q 0,0.82031 0.97657,1.17187 0.97656,0.35157 0.97656,0.85938 0,0.85937 -0.78125,0.85937 h -7.38281 q -0.78125,0 -0.78125,-0.85937 0,-0.54688 0.97656,-0.82031 1.01562,-0.35157 1.01562,-1.21094 v -14.64844 q 0,-0.50781 -0.9375,-0.82031 -0.9375,-0.27344 -0.9375,-0.9375 0,-0.39063 0.625,-0.74219 0.625,-0.35156 1.5625,-0.58594 0.97657,-0.27343 2.10938,-0.46875 1.13281,-0.19531 2.1875,-0.3125 1.09375,-0.15625 1.91406,-0.19531 0.82031,-0.0781 1.13281,-0.0781 1.48438,0 2.92969,0.35156 1.44531,0.35156 2.57813,1.09375 1.17187,0.70312 1.875,1.875 0.74218,1.13281 0.74218,2.73437 0,1.09375 -0.35156,1.875 -0.35156,0.74219 -0.97656,1.36719 -0.58594,0.625 -1.40625,1.17188 -0.78125,0.50781 -1.64063,1.13281 0.66407,2.30469 2.77344,4.96094 1.05469,1.28906 2.1875,2.14843 1.13281,0.82032 2.07031,1.48438 0.39063,0.27344 0.42969,0.54687 0.0391,0.23438 -0.11719,0.46875 -0.15625,0.19532 -0.46875,0.35157 -0.27343,0.11718 -0.50781,0.11718 z" />
        <path
           id="path5780"
           style="font-style:normal;font-variant:normal;font-weight:normal;font-stretch:normal;font-size:40px;line-height:1.25;font-family:'AR JULIAN';-inkscape-font-specification:'AR JULIAN'"
           d="m -553.11914,-167.92204 h -0.0781 q 0.15625,0.0781 0.3125,0.15625 0.19532,0.0781 0.39063,0.15625 h 0.11719 q 0.0781,0.19531 0.15625,0.39062 0.0781,0.19531 0.15625,0.35156 0,0.70313 -0.97657,1.36719 -0.9375,0.625 -2.69531,1.17188 -1.28906,0.3125 -2.57812,0.54687 -1.28907,0.19531 -2.42188,0.19531 -2.34375,0 -4.17969,-0.82031 -1.83593,-0.85937 -3.125,-2.30469 -1.28906,-1.48437 -1.99218,-3.47656 -0.66407,-2.03125 -0.66407,-4.375 0,-2.14844 0.66407,-4.0625 0.70312,-1.91406 1.95312,-3.32031 1.28906,-1.44531 3.04688,-2.34375 1.75781,-0.89844 3.86718,-1.01563 0.70313,-0.0391 1.40625,0.0391 0.70313,0.0781 1.28907,0.19531 0.625,0.11719 1.05468,0.15625 0.46875,0.0391 0.66407,-0.0781 0.19531,-0.11718 0.50781,-0.3125 0.3125,-0.23437 0.70312,-0.23437 0.39063,0 0.74219,0.58594 0.35156,0.54687 0.70313,1.5625 0.42968,1.01562 0.58593,1.5625 0.15625,0.50781 0.11719,0.82031 -0.0391,0.23437 -0.23437,0.46875 -0.15625,0.23437 -0.39063,0.35156 -0.23437,0.11719 -0.46875,0.11719 -0.23437,0 -0.39062,-0.23438 -0.23438,-0.27343 -0.39063,-0.39062 -0.15625,-0.15625 -0.3125,-0.23438 -0.11719,-0.11718 -0.27344,-0.23437 -0.11718,-0.11719 -0.35156,-0.35156 -0.78125,-0.78125 -1.91406,-1.17188 -1.13281,-0.39062 -2.34375,-0.39062 -1.44531,0 -2.46094,0.89843 -1.01562,0.85938 -1.64062,2.1875 -0.625,1.32813 -0.9375,2.89063 -0.27344,1.52344 -0.27344,2.85156 0,1.67969 0.3125,3.20313 0.3125,1.48437 1.01562,2.61718 0.70313,1.13282 1.875,1.79688 1.17188,0.66406 2.89063,0.66406 0.42969,0 0.78125,-0.0391 0.39062,-0.0391 0.625,-0.11719 0.27344,-0.15625 0.50781,-0.42969 0.23438,-0.27343 0.23438,-0.625 v -3.55468 q 0,-0.89844 -0.82032,-1.21094 -1.21093,-0.35156 -1.21093,-1.01563 0,-0.42968 0.39062,-0.625 0.39063,-0.19531 0.9375,-0.19531 h 5.54688 q 0.54687,0 0.9375,0.19531 0.42968,0.19532 0.42968,0.625 0,0.46875 -1.05468,0.97657 -0.3125,0.19531 -0.54688,0.54687 -0.19531,0.3125 -0.19531,0.70313 z" />
        <path
           id="path5782"
           style="font-style:normal;font-variant:normal;font-weight:normal;font-stretch:normal;font-size:40px;line-height:1.25;font-family:'AR JULIAN';-inkscape-font-specification:'AR JULIAN'"
           d="m -539.17383,-163.58611 q -0.89844,0 -0.89844,-0.85937 0,-0.50781 0.66407,-0.74219 0.74218,-0.27344 1.13281,-0.66406 0.39062,-0.39063 0.23437,-0.82031 l -0.9375,-3.00782 q -0.85937,-0.19531 -1.875,-0.15625 -1.32812,0.3125 -2.30468,0 -0.89844,-0.27343 -0.89844,-1.01562 0,-0.66406 0.46875,-0.85938 0.50781,-0.23437 1.44531,-0.23437 0.50781,0 1.13281,0.0391 0.66407,0 0.9375,-0.3125 -0.0391,-0.35156 -0.35156,-1.28906 -0.3125,-0.97656 -0.70312,-2.03125 -0.35157,-1.05469 -0.70313,-1.95313 -0.35156,-0.9375 -0.46875,-1.25 -0.39062,0.85938 -0.97656,2.46094 -0.54688,1.5625 -1.32813,3.78906 -0.89843,2.5 -1.28906,4.0625 -0.39062,1.52344 -0.39062,2.07032 0,0.82031 0.82031,1.09375 0.85937,0.35156 0.85937,0.82031 0,0.85937 -0.89843,0.85937 h -5.07813 q -0.42969,0 -0.54687,-0.23437 -0.0781,-0.23438 -0.0781,-0.66406 0.85938,-0.66407 1.5625,-1.28907 0.74219,-0.625 0.97656,-1.25 1.52344,-4.29687 2.85157,-8.55468 1.32812,-4.25782 2.77343,-8.63282 0.19532,-0.54687 0.70313,-0.82031 0.50781,-0.3125 1.05469,-0.3125 0.66406,0 1.36718,0.27344 0.74219,0.23437 0.9375,0.74219 1.52344,4.29687 3.00782,8.55468 1.52343,4.21875 3.00781,8.51563 0.19531,0.46875 0.625,0.78125 0.46875,0.3125 1.32812,0.97656 0.42969,0.3125 0.78125,0.58594 0.35157,0.23437 0.35157,0.46875 0,0.85937 -0.85938,0.85937 z" />
        <path
           id="path5784"
           style="font-style:normal;font-variant:normal;font-weight:normal;font-stretch:normal;font-size:40px;line-height:1.25;font-family:'AR JULIAN';-inkscape-font-specification:'AR JULIAN'"
           d="m -513.43164,-163.58611 q -1.21094,0 -4.29688,-4.45312 -2.96875,-4.41406 -2.96875,-5.82031 0,-0.50782 2.14844,-1.36719 1.09375,-0.42969 1.60156,-1.40625 0.50782,-1.01563 0.50782,-2.42188 0,-0.70312 -0.19532,-1.36718 -0.15625,-0.70313 -0.54687,-1.25 -0.35156,-0.54688 -0.9375,-0.89844 -0.54688,-0.35156 -1.32813,-0.39063 -0.46875,0 -0.9375,0.11719 -0.46875,0.11719 -0.89843,0.35156 -0.39063,0.23438 -0.66407,0.58594 -0.23437,0.35156 -0.23437,0.78125 v 14.64844 q 0,0.82031 0.97656,1.17187 0.97656,0.35157 0.97656,0.85938 0,0.85937 -0.78125,0.85937 h -7.38281 q -0.78125,0 -0.78125,-0.85937 0,-0.54688 0.97656,-0.82031 1.01563,-0.35157 1.01563,-1.21094 v -14.64844 q 0,-0.50781 -0.9375,-0.82031 -0.9375,-0.27344 -0.9375,-0.9375 0,-0.39063 0.625,-0.74219 0.625,-0.35156 1.5625,-0.58594 0.97656,-0.27343 2.10937,-0.46875 1.13282,-0.19531 2.1875,-0.3125 1.09375,-0.15625 1.91407,-0.19531 0.82031,-0.0781 1.13281,-0.0781 1.48437,0 2.92969,0.35156 1.44531,0.35156 2.57812,1.09375 1.17188,0.70312 1.875,1.875 0.74219,1.13281 0.74219,2.73437 0,1.09375 -0.35156,1.875 -0.35157,0.74219 -0.97657,1.36719 -0.58593,0.625 -1.40625,1.17188 -0.78125,0.50781 -1.64062,1.13281 0.66406,2.30469 2.77344,4.96094 1.05468,1.28906 2.1875,2.14843 1.13281,0.82032 2.07031,1.48438 0.39062,0.27344 0.42969,0.54687 0.0391,0.23438 -0.11719,0.46875 -0.15625,0.19532 -0.46875,0.35157 -0.27344,0.11718 -0.50781,0.11718 z" />
        <path
           id="path5786"
           style="font-style:normal;font-variant:normal;font-weight:normal;font-stretch:normal;font-size:40px;line-height:1.25;font-family:'AR JULIAN';-inkscape-font-specification:'AR JULIAN'"
           d="m -506.67383,-163.58611 q -0.78125,0 -0.78125,-0.85937 0,-0.54688 0.97656,-0.82031 0.97657,-0.35157 0.97657,-1.21094 v -15.85938 q 0,-0.85937 -0.97657,-1.21093 -0.97656,-0.27344 -0.97656,-0.85938 0,-0.82031 0.78125,-0.82031 h 7.34375 q 0.78125,0 0.78125,0.82031 0,0.54688 -1.01562,0.85938 -0.97657,0.35156 -0.97657,1.21093 v 15.85938 q 0,0.85937 0.97657,1.21094 1.01562,0.3125 1.01562,0.82031 0,0.85937 -0.78125,0.85937 z" />
        <path
           id="path5788"
           style="font-style:normal;font-variant:normal;font-weight:normal;font-stretch:normal;font-size:40px;line-height:1.25;font-family:'AR JULIAN';-inkscape-font-specification:'AR JULIAN'"
           d="m -479.36914,-182.33611 q 0,1.40625 0.0391,3.28125 0.0391,1.875 0.0781,3.90625 0.0391,2.03125 0.0391,4.02344 0,1.99219 -0.0391,3.59375 0,1.60156 -0.0781,2.61719 -0.0781,0.97656 -0.23437,1.05469 -0.19532,0.19531 -0.50782,0.27343 -0.3125,0.11719 -0.625,0.11719 -0.3125,0.0391 -0.625,-0.0781 -0.3125,-0.0781 -0.46875,-0.3125 -2.5,-3.4375 -5.35156,-7.1875 -2.8125,-3.78907 -5.9375,-7.22657 l -0.0391,11.83594 q 0,0.85938 0.97656,1.13281 0.97656,0.35157 0.97656,0.89844 0,0.82031 -0.78125,0.82031 h -5 q -0.78125,0 -0.78125,-0.82031 0,-0.50781 0.97657,-0.85937 0.97656,-0.27344 0.97656,-1.17188 v -15.89844 q 0,-0.85937 -0.97656,-1.21093 -0.97657,-0.27344 -0.97657,-0.85938 0,-0.85937 0.78125,-0.85937 h 4.29688 q 0.27344,0 0.97656,0.74218 0.74219,0.70313 1.67969,1.875 0.9375,1.13282 2.03125,2.57813 1.09375,1.44531 2.1875,2.85156 1.09375,1.36719 2.07031,2.61719 0.97656,1.21094 1.67969,1.95312 0,-0.0391 0,-0.23437 0,-0.19531 -0.0391,-1.09375 0,-0.9375 0,-2.85156 0,-1.95313 0.0391,-5.50782 0,-0.78125 -1.28906,-1.28906 -0.625,-0.23437 -0.625,-0.74219 0,-0.85937 0.78125,-0.85937 h 4.92187 q 0.82031,0 0.82031,0.85937 0,0.54688 -0.97656,0.82032 -0.97656,0.35156 -0.97656,1.21093 z" />
        <path
           id="path5790"
           style="font-style:normal;font-variant:normal;font-weight:normal;font-stretch:normal;font-size:40px;line-height:1.25;font-family:'AR JULIAN';-inkscape-font-specification:'AR JULIAN'"
           d="m -468.97852,-177.53142 q 0.66407,0.27344 1.36719,0.27344 0.35156,0 0.97656,-0.0391 0.625,-0.0781 1.01563,-0.0781 0.85937,0 1.36719,0.3125 0.54687,0.27344 0.54687,1.05469 0,0.78125 -0.54687,1.05469 -0.54688,0.27343 -1.48438,0.27343 -0.74219,0 -1.36719,-0.0391 -0.625,-0.0781 -0.66406,-0.0781 -0.3125,0 -0.82031,0.15625 -0.46875,0.15625 -0.46875,0.82031 v 6.83594 q 0,0.82031 0.3125,0.9375 0.35156,0.11718 0.97656,0.15625 0.70313,0.0391 1.71875,0.0781 1.05469,0 2.03125,-0.0391 0.78125,-0.0391 1.48438,-0.27344 0.70312,-0.27344 1.21093,-0.78125 0.58594,-0.58594 0.97657,-0.9375 0.42968,-0.35156 0.54687,-0.35156 0.35156,-0.0391 0.625,0.15625 0.27344,0.15625 0.27344,0.50781 0,0.19531 -0.15625,0.625 -0.15625,0.42969 -0.39063,0.97656 -0.23437,0.50782 -0.50781,1.01563 -0.27344,0.50781 -0.50781,0.78125 -0.27344,0.3125 -0.74219,0.42969 -0.42969,0.11718 -0.54687,0.11718 h -13.4375 q -0.39063,0 -0.58594,-0.23437 -0.19531,-0.27344 -0.19531,-0.70313 0,-0.27343 0.3125,-0.42968 0.3125,-0.15625 0.66406,-0.3125 0.35156,-0.15625 0.66406,-0.42969 0.3125,-0.27344 0.3125,-0.78125 v -15.85938 q 0,-0.46875 -0.3125,-0.74218 -0.3125,-0.27344 -0.66406,-0.46875 -0.35156,-0.19532 -0.66406,-0.35157 -0.3125,-0.19531 -0.3125,-0.50781 0,-0.82031 0.78125,-0.82031 h 12.77343 q 0.46875,0 0.85938,0.3125 0.42969,0.27344 0.74219,0.74219 0.35156,0.46875 0.54687,1.05468 0.23438,0.58594 0.23438,1.17188 0,0.11719 -0.11719,0.3125 -0.0781,0.19531 -0.23438,0.3125 -0.15625,0.11719 -0.35156,0.15625 -0.19531,0.0391 -0.42969,-0.15625 -0.89843,-0.70313 -1.44531,-1.05469 -0.50781,-0.39062 -1.09375,-0.58594 -0.58594,-0.19531 -1.40625,-0.23437 -0.78125,-0.0391 -2.14844,-0.0391 -1.13281,0 -1.48437,0.3125 -0.3125,0.3125 -0.3125,0.85937 0,1.52344 0,2.42188 0.0391,0.85937 0.0391,1.32812 0,0.42969 0,0.58594 0.0391,0.15625 0.0391,0.19531 z" />
      </g>
      <g
         id="flowRoot3111"
         style="font-style:normal;font-variant:normal;font-weight:normal;font-stretch:normal;line-height:0.01%;font-family:Homespun;-inkscape-font-specification:Homespun;letter-spacing:0px;word-spacing:0px;fill:#000000;fill-opacity:1;stroke:none"
         transform="matrix(1.5056573,0,-1.3583347,1.9356618,1102.5555,382.67088)"
         aria-label="Margarine">
        <path
           id="path5793"
           style="font-style:normal;font-variant:normal;font-weight:normal;font-stretch:normal;font-size:40px;line-height:1.25;font-family:'AR JULIAN';-inkscape-font-specification:'AR JULIAN'"
           d="m -623.62695,-182.10173 q -0.78125,0.97656 -1.60157,2.30469 -0.82031,1.28906 -1.75781,2.69531 -0.89844,1.40625 -1.91406,2.8125 -1.01563,1.36719 -2.1875,2.46094 -0.54688,-0.42969 -1.32813,-1.28907 -0.74218,-0.89843 -1.60156,-1.99218 -0.82031,-1.09375 -1.67969,-2.22657 -0.85937,-1.17187 -1.5625,-2.14843 -0.70312,-0.97657 -1.25,-1.60157 -0.50781,-0.66406 -0.66406,-0.70312 -0.0391,0.0781 -0.0781,0.19531 0,0.11719 0,0.58594 0,0.42969 0,1.32812 0,0.89844 0,2.5 0,1.60157 0,4.0625 0,2.42188 0,5.9375 0,0.82032 1.36718,1.5625 0.39063,0.19532 0.74219,0.42969 0.35156,0.23438 0.3125,0.54688 -0.0781,0.42968 -0.27344,0.74218 -0.19531,0.3125 -0.74218,0.3125 h -6.25 q -0.97657,0 -0.97657,-1.05468 0,-0.39063 1.21094,-1.01563 1.25,-0.66406 1.25,-1.52344 v -19.88281 q 0,-1.05469 -1.25,-1.48437 -1.21094,-0.39063 -1.21094,-1.09375 0.23438,-0.27344 0.42969,-0.66407 0.19531,-0.39062 0.54688,-0.39062 h 4.88281 q 0.50781,0.27344 1.28906,1.17187 0.78125,0.85938 1.67969,2.03125 0.89844,1.17188 1.83594,2.53907 0.9375,1.32812 1.75781,2.5 0.82031,1.17187 1.48437,2.07031 0.66407,0.85937 0.97657,1.09375 0.27343,-0.0781 0.78125,-0.78125 0.54687,-0.70313 1.17187,-1.67969 0.625,-0.97656 1.25,-2.07031 0.66406,-1.13281 1.21094,-2.03125 0.54687,-0.9375 0.85937,-1.52344 0.3125,-0.625 0.3125,-0.58594 1.79688,-2.73437 3.04688,-2.73437 h 5.58594 q 0.97656,0 0.97656,1.05469 0,0.39062 -1.21094,1.01562 -1.17187,0.625 -1.17187,1.5625 v 19.88281 q 0,0.82032 1.32812,1.5625 0.39063,0.19532 0.70313,0.35157 0.35156,0.15625 0.35156,0.625 0,0.39062 -0.23438,0.74218 -0.19531,0.3125 -0.74218,0.3125 h -9.10157 q -0.9375,0 -0.9375,-1.05468 0,-0.39063 1.21094,-1.01563 1.17188,-0.625 1.17188,-1.52344 z" />
        <path
           id="path5795"
           style="font-style:normal;font-variant:normal;font-weight:normal;font-stretch:normal;font-size:40px;line-height:1.25;font-family:'AR JULIAN';-inkscape-font-specification:'AR JULIAN'"
           d="m -602.2207,-163.58611 q -0.89844,0 -0.89844,-0.85937 0,-0.50781 0.66406,-0.74219 0.74219,-0.27344 1.13281,-0.66406 0.39063,-0.39063 0.23438,-0.82031 l -0.9375,-3.00782 q -0.85938,-0.19531 -1.875,-0.15625 -1.32813,0.3125 -2.30469,0 -0.89844,-0.27343 -0.89844,-1.01562 0,-0.66406 0.46875,-0.85938 0.50782,-0.23437 1.44532,-0.23437 0.50781,0 1.13281,0.0391 0.66406,0 0.9375,-0.3125 -0.0391,-0.35156 -0.35156,-1.28906 -0.3125,-0.97656 -0.70313,-2.03125 -0.35156,-1.05469 -0.70312,-1.95313 -0.35157,-0.9375 -0.46875,-1.25 -0.39063,0.85938 -0.97657,2.46094 -0.54687,1.5625 -1.32812,3.78906 -0.89844,2.5 -1.28906,4.0625 -0.39063,1.52344 -0.39063,2.07032 0,0.82031 0.82031,1.09375 0.85938,0.35156 0.85938,0.82031 0,0.85937 -0.89844,0.85937 h -5.07812 q -0.42969,0 -0.54688,-0.23437 -0.0781,-0.23438 -0.0781,-0.66406 0.85937,-0.66407 1.5625,-1.28907 0.74218,-0.625 0.97656,-1.25 1.52344,-4.29687 2.85156,-8.55468 1.32813,-4.25782 2.77344,-8.63282 0.19531,-0.54687 0.70312,-0.82031 0.50782,-0.3125 1.05469,-0.3125 0.66406,0 1.36719,0.27344 0.74219,0.23437 0.9375,0.74219 1.52344,4.29687 3.00781,8.55468 1.52344,4.21875 3.00781,8.51563 0.19532,0.46875 0.625,0.78125 0.46875,0.3125 1.32813,0.97656 0.42969,0.3125 0.78125,0.58594 0.35156,0.23437 0.35156,0.46875 0,0.85937 -0.85937,0.85937 z" />
        <path
           id="path5797"
           style="font-style:normal;font-variant:normal;font-weight:normal;font-stretch:normal;font-size:40px;line-height:1.25;font-family:'AR JULIAN';-inkscape-font-specification:'AR JULIAN'"
           d="m -576.47852,-163.58611 q -1.21093,0 -4.29687,-4.45312 -2.96875,-4.41406 -2.96875,-5.82031 0,-0.50782 2.14844,-1.36719 1.09375,-0.42969 1.60156,-1.40625 0.50781,-1.01563 0.50781,-2.42188 0,-0.70312 -0.19531,-1.36718 -0.15625,-0.70313 -0.54688,-1.25 -0.35156,-0.54688 -0.9375,-0.89844 -0.54687,-0.35156 -1.32812,-0.39063 -0.46875,0 -0.9375,0.11719 -0.46875,0.11719 -0.89844,0.35156 -0.39062,0.23438 -0.66406,0.58594 -0.23438,0.35156 -0.23438,0.78125 v 14.64844 q 0,0.82031 0.97657,1.17187 0.97656,0.35157 0.97656,0.85938 0,0.85937 -0.78125,0.85937 h -7.38281 q -0.78125,0 -0.78125,-0.85937 0,-0.54688 0.97656,-0.82031 1.01562,-0.35157 1.01562,-1.21094 v -14.64844 q 0,-0.50781 -0.9375,-0.82031 -0.9375,-0.27344 -0.9375,-0.9375 0,-0.39063 0.625,-0.74219 0.625,-0.35156 1.5625,-0.58594 0.97657,-0.27343 2.10938,-0.46875 1.13281,-0.19531 2.1875,-0.3125 1.09375,-0.15625 1.91406,-0.19531 0.82031,-0.0781 1.13281,-0.0781 1.48438,0 2.92969,0.35156 1.44531,0.35156 2.57813,1.09375 1.17187,0.70312 1.875,1.875 0.74218,1.13281 0.74218,2.73437 0,1.09375 -0.35156,1.875 -0.35156,0.74219 -0.97656,1.36719 -0.58594,0.625 -1.40625,1.17188 -0.78125,0.50781 -1.64063,1.13281 0.66407,2.30469 2.77344,4.96094 1.05469,1.28906 2.1875,2.14843 1.13281,0.82032 2.07031,1.48438 0.39063,0.27344 0.42969,0.54687 0.0391,0.23438 -0.11719,0.46875 -0.15625,0.19532 -0.46875,0.35157 -0.27343,0.11718 -0.50781,0.11718 z" />
        <path
           id="path5799"
           style="font-style:normal;font-variant:normal;font-weight:normal;font-stretch:normal;font-size:40px;line-height:1.25;font-family:'AR JULIAN';-inkscape-font-specification:'AR JULIAN'"
           d="m -553.11914,-167.92204 h -0.0781 q 0.15625,0.0781 0.3125,0.15625 0.19532,0.0781 0.39063,0.15625 h 0.11719 q 0.0781,0.19531 0.15625,0.39062 0.0781,0.19531 0.15625,0.35156 0,0.70313 -0.97657,1.36719 -0.9375,0.625 -2.69531,1.17188 -1.28906,0.3125 -2.57812,0.54687 -1.28907,0.19531 -2.42188,0.19531 -2.34375,0 -4.17969,-0.82031 -1.83593,-0.85937 -3.125,-2.30469 -1.28906,-1.48437 -1.99218,-3.47656 -0.66407,-2.03125 -0.66407,-4.375 0,-2.14844 0.66407,-4.0625 0.70312,-1.91406 1.95312,-3.32031 1.28906,-1.44531 3.04688,-2.34375 1.75781,-0.89844 3.86718,-1.01563 0.70313,-0.0391 1.40625,0.0391 0.70313,0.0781 1.28907,0.19531 0.625,0.11719 1.05468,0.15625 0.46875,0.0391 0.66407,-0.0781 0.19531,-0.11718 0.50781,-0.3125 0.3125,-0.23437 0.70312,-0.23437 0.39063,0 0.74219,0.58594 0.35156,0.54687 0.70313,1.5625 0.42968,1.01562 0.58593,1.5625 0.15625,0.50781 0.11719,0.82031 -0.0391,0.23437 -0.23437,0.46875 -0.15625,0.23437 -0.39063,0.35156 -0.23437,0.11719 -0.46875,0.11719 -0.23437,0 -0.39062,-0.23438 -0.23438,-0.27343 -0.39063,-0.39062 -0.15625,-0.15625 -0.3125,-0.23438 -0.11719,-0.11718 -0.27344,-0.23437 -0.11718,-0.11719 -0.35156,-0.35156 -0.78125,-0.78125 -1.91406,-1.17188 -1.13281,-0.39062 -2.34375,-0.39062 -1.44531,0 -2.46094,0.89843 -1.01562,0.85938 -1.64062,2.1875 -0.625,1.32813 -0.9375,2.89063 -0.27344,1.52344 -0.27344,2.85156 0,1.67969 0.3125,3.20313 0.3125,1.48437 1.01562,2.61718 0.70313,1.13282 1.875,1.79688 1.17188,0.66406 2.89063,0.66406 0.42969,0 0.78125,-0.0391 0.39062,-0.0391 0.625,-0.11719 0.27344,-0.15625 0.50781,-0.42969 0.23438,-0.27343 0.23438,-0.625 v -3.55468 q 0,-0.89844 -0.82032,-1.21094 -1.21093,-0.35156 -1.21093,-1.01563 0,-0.42968 0.39062,-0.625 0.39063,-0.19531 0.9375,-0.19531 h 5.54688 q 0.54687,0 0.9375,0.19531 0.42968,0.19532 0.42968,0.625 0,0.46875 -1.05468,0.97657 -0.3125,0.19531 -0.54688,0.54687 -0.19531,0.3125 -0.19531,0.70313 z" />
        <path
           id="path5801"
           style="font-style:normal;font-variant:normal;font-weight:normal;font-stretch:normal;font-size:40px;line-height:1.25;font-family:'AR JULIAN';-inkscape-font-specification:'AR JULIAN'"
           d="m -539.17383,-163.58611 q -0.89844,0 -0.89844,-0.85937 0,-0.50781 0.66407,-0.74219 0.74218,-0.27344 1.13281,-0.66406 0.39062,-0.39063 0.23437,-0.82031 l -0.9375,-3.00782 q -0.85937,-0.19531 -1.875,-0.15625 -1.32812,0.3125 -2.30468,0 -0.89844,-0.27343 -0.89844,-1.01562 0,-0.66406 0.46875,-0.85938 0.50781,-0.23437 1.44531,-0.23437 0.50781,0 1.13281,0.0391 0.66407,0 0.9375,-0.3125 -0.0391,-0.35156 -0.35156,-1.28906 -0.3125,-0.97656 -0.70312,-2.03125 -0.35157,-1.05469 -0.70313,-1.95313 -0.35156,-0.9375 -0.46875,-1.25 -0.39062,0.85938 -0.97656,2.46094 -0.54688,1.5625 -1.32813,3.78906 -0.89843,2.5 -1.28906,4.0625 -0.39062,1.52344 -0.39062,2.07032 0,0.82031 0.82031,1.09375 0.85937,0.35156 0.85937,0.82031 0,0.85937 -0.89843,0.85937 h -5.07813 q -0.42969,0 -0.54687,-0.23437 -0.0781,-0.23438 -0.0781,-0.66406 0.85938,-0.66407 1.5625,-1.28907 0.74219,-0.625 0.97656,-1.25 1.52344,-4.29687 2.85157,-8.55468 1.32812,-4.25782 2.77343,-8.63282 0.19532,-0.54687 0.70313,-0.82031 0.50781,-0.3125 1.05469,-0.3125 0.66406,0 1.36718,0.27344 0.74219,0.23437 0.9375,0.74219 1.52344,4.29687 3.00782,8.55468 1.52343,4.21875 3.00781,8.51563 0.19531,0.46875 0.625,0.78125 0.46875,0.3125 1.32812,0.97656 0.42969,0.3125 0.78125,0.58594 0.35157,0.23437 0.35157,0.46875 0,0.85937 -0.85938,0.85937 z" />
        <path
           id="path5803"
           style="font-style:normal;font-variant:normal;font-weight:normal;font-stretch:normal;font-size:40px;line-height:1.25;font-family:'AR JULIAN';-inkscape-font-specification:'AR JULIAN'"
           d="m -513.43164,-163.58611 q -1.21094,0 -4.29688,-4.45312 -2.96875,-4.41406 -2.96875,-5.82031 0,-0.50782 2.14844,-1.36719 1.09375,-0.42969 1.60156,-1.40625 0.50782,-1.01563 0.50782,-2.42188 0,-0.70312 -0.19532,-1.36718 -0.15625,-0.70313 -0.54687,-1.25 -0.35156,-0.54688 -0.9375,-0.89844 -0.54688,-0.35156 -1.32813,-0.39063 -0.46875,0 -0.9375,0.11719 -0.46875,0.11719 -0.89843,0.35156 -0.39063,0.23438 -0.66407,0.58594 -0.23437,0.35156 -0.23437,0.78125 v 14.64844 q 0,0.82031 0.97656,1.17187 0.97656,0.35157 0.97656,0.85938 0,0.85937 -0.78125,0.85937 h -7.38281 q -0.78125,0 -0.78125,-0.85937 0,-0.54688 0.97656,-0.82031 1.01563,-0.35157 1.01563,-1.21094 v -14.64844 q 0,-0.50781 -0.9375,-0.82031 -0.9375,-0.27344 -0.9375,-0.9375 0,-0.39063 0.625,-0.74219 0.625,-0.35156 1.5625,-0.58594 0.97656,-0.27343 2.10937,-0.46875 1.13282,-0.19531 2.1875,-0.3125 1.09375,-0.15625 1.91407,-0.19531 0.82031,-0.0781 1.13281,-0.0781 1.48437,0 2.92969,0.35156 1.44531,0.35156 2.57812,1.09375 1.17188,0.70312 1.875,1.875 0.74219,1.13281 0.74219,2.73437 0,1.09375 -0.35156,1.875 -0.35157,0.74219 -0.97657,1.36719 -0.58593,0.625 -1.40625,1.17188 -0.78125,0.50781 -1.64062,1.13281 0.66406,2.30469 2.77344,4.96094 1.05468,1.28906 2.1875,2.14843 1.13281,0.82032 2.07031,1.48438 0.39062,0.27344 0.42969,0.54687 0.0391,0.23438 -0.11719,0.46875 -0.15625,0.19532 -0.46875,0.35157 -0.27344,0.11718 -0.50781,0.11718 z" />
        <path
           id="path5805"
           style="font-style:normal;font-variant:normal;font-weight:normal;font-stretch:normal;font-size:40px;line-height:1.25;font-family:'AR JULIAN';-inkscape-font-specification:'AR JULIAN'"
           d="m -506.67383,-163.58611 q -0.78125,0 -0.78125,-0.85937 0,-0.54688 0.97656,-0.82031 0.97657,-0.35157 0.97657,-1.21094 v -15.85938 q 0,-0.85937 -0.97657,-1.21093 -0.97656,-0.27344 -0.97656,-0.85938 0,-0.82031 0.78125,-0.82031 h 7.34375 q 0.78125,0 0.78125,0.82031 0,0.54688 -1.01562,0.85938 -0.97657,0.35156 -0.97657,1.21093 v 15.85938 q 0,0.85937 0.97657,1.21094 1.01562,0.3125 1.01562,0.82031 0,0.85937 -0.78125,0.85937 z" />
        <path
           id="path5807"
           style="font-style:normal;font-variant:normal;font-weight:normal;font-stretch:normal;font-size:40px;line-height:1.25;font-family:'AR JULIAN';-inkscape-font-specification:'AR JULIAN'"
           d="m -479.36914,-182.33611 q 0,1.40625 0.0391,3.28125 0.0391,1.875 0.0781,3.90625 0.0391,2.03125 0.0391,4.02344 0,1.99219 -0.0391,3.59375 0,1.60156 -0.0781,2.61719 -0.0781,0.97656 -0.23437,1.05469 -0.19532,0.19531 -0.50782,0.27343 -0.3125,0.11719 -0.625,0.11719 -0.3125,0.0391 -0.625,-0.0781 -0.3125,-0.0781 -0.46875,-0.3125 -2.5,-3.4375 -5.35156,-7.1875 -2.8125,-3.78907 -5.9375,-7.22657 l -0.0391,11.83594 q 0,0.85938 0.97656,1.13281 0.97656,0.35157 0.97656,0.89844 0,0.82031 -0.78125,0.82031 h -5 q -0.78125,0 -0.78125,-0.82031 0,-0.50781 0.97657,-0.85937 0.97656,-0.27344 0.97656,-1.17188 v -15.89844 q 0,-0.85937 -0.97656,-1.21093 -0.97657,-0.27344 -0.97657,-0.85938 0,-0.85937 0.78125,-0.85937 h 4.29688 q 0.27344,0 0.97656,0.74218 0.74219,0.70313 1.67969,1.875 0.9375,1.13282 2.03125,2.57813 1.09375,1.44531 2.1875,2.85156 1.09375,1.36719 2.07031,2.61719 0.97656,1.21094 1.67969,1.95312 0,-0.0391 0,-0.23437 0,-0.19531 -0.0391,-1.09375 0,-0.9375 0,-2.85156 0,-1.95313 0.0391,-5.50782 0,-0.78125 -1.28906,-1.28906 -0.625,-0.23437 -0.625,-0.74219 0,-0.85937 0.78125,-0.85937 h 4.92187 q 0.82031,0 0.82031,0.85937 0,0.54688 -0.97656,0.82032 -0.97656,0.35156 -0.97656,1.21093 z" />
        <path
           id="path5809"
           style="font-style:normal;font-variant:normal;font-weight:normal;font-stretch:normal;font-size:40px;line-height:1.25;font-family:'AR JULIAN';-inkscape-font-specification:'AR JULIAN'"
           d="m -468.97852,-177.53142 q 0.66407,0.27344 1.36719,0.27344 0.35156,0 0.97656,-0.0391 0.625,-0.0781 1.01563,-0.0781 0.85937,0 1.36719,0.3125 0.54687,0.27344 0.54687,1.05469 0,0.78125 -0.54687,1.05469 -0.54688,0.27343 -1.48438,0.27343 -0.74219,0 -1.36719,-0.0391 -0.625,-0.0781 -0.66406,-0.0781 -0.3125,0 -0.82031,0.15625 -0.46875,0.15625 -0.46875,0.82031 v 6.83594 q 0,0.82031 0.3125,0.9375 0.35156,0.11718 0.97656,0.15625 0.70313,0.0391 1.71875,0.0781 1.05469,0 2.03125,-0.0391 0.78125,-0.0391 1.48438,-0.27344 0.70312,-0.27344 1.21093,-0.78125 0.58594,-0.58594 0.97657,-0.9375 0.42968,-0.35156 0.54687,-0.35156 0.35156,-0.0391 0.625,0.15625 0.27344,0.15625 0.27344,0.50781 0,0.19531 -0.15625,0.625 -0.15625,0.42969 -0.39063,0.97656 -0.23437,0.50782 -0.50781,1.01563 -0.27344,0.50781 -0.50781,0.78125 -0.27344,0.3125 -0.74219,0.42969 -0.42969,0.11718 -0.54687,0.11718 h -13.4375 q -0.39063,0 -0.58594,-0.23437 -0.19531,-0.27344 -0.19531,-0.70313 0,-0.27343 0.3125,-0.42968 0.3125,-0.15625 0.66406,-0.3125 0.35156,-0.15625 0.66406,-0.42969 0.3125,-0.27344 0.3125,-0.78125 v -15.85938 q 0,-0.46875 -0.3125,-0.74218 -0.3125,-0.27344 -0.66406,-0.46875 -0.35156,-0.19532 -0.66406,-0.35157 -0.3125,-0.19531 -0.3125,-0.50781 0,-0.82031 0.78125,-0.82031 h 12.77343 q 0.46875,0 0.85938,0.3125 0.42969,0.27344 0.74219,0.74219 0.35156,0.46875 0.54687,1.05468 0.23438,0.58594 0.23438,1.17188 0,0.11719 -0.11719,0.3125 -0.0781,0.19531 -0.23438,0.3125 -0.15625,0.11719 -0.35156,0.15625 -0.19531,0.0391 -0.42969,-0.15625 -0.89843,-0.70313 -1.44531,-1.05469 -0.50781,-0.39062 -1.09375,-0.58594 -0.58594,-0.19531 -1.40625,-0.23437 -0.78125,-0.0391 -2.14844,-0.0391 -1.13281,0 -1.48437,0.3125 -0.3125,0.3125 -0.3125,0.85937 0,1.52344 0,2.42188 0.0391,0.85937 0.0391,1.32812 0,0.42969 0,0.58594 0.0391,0.15625 0.0391,0.19531 z" />
      </g>
      <g
         transform="matrix(0.54511493,0,0,0.54511493,388.37905,86.389935)"
         i:dimmedPercent="50"
         i:rgbTrio="#4F008000FFFF"
         i:layer="yes"
         id="g3119">
        <g
           style="fill-rule:evenodd;stroke:#000000;stroke-width:0.036;stroke-miterlimit:10"
           id="g3121"
           clip-rule="evenodd"
           stroke-miterlimit="10">
          <path
             inkscape:connector-curvature="0"
             id="path3123"
             i:knockout="Off"
             d="M 84.87,5.597 C 84.186,4.265 83.25,3.509 82.062,3.329 c -1.296,-0.288 -2.7,0.18 -4.5,1.008 -0.864,-1.44 -1.728,-2.16 -2.88,-2.16 -1.188,0 -2.376,0.576 -3.852,2.016 -0.576,-1.332 -1.332,-2.196 -2.268,-2.196 -1.008,-0.108 -2.196,0.468 -3.564,1.728 -0.9,-1.296 -1.98,-1.872 -2.844,-1.872 -1.044,0 -1.872,0.612 -2.88,1.836 -1.404,-1.728 -2.736,-2.628 -3.852,-2.7 -1.188,-0.144 -2.16,0.684 -3.06,2.196 -1.26,-1.656 -2.34,-2.34 -3.384,-2.34 -1.044,0 -2.052,0.828 -2.88,2.484 -0.756,-1.404 -1.62,-2.124 -2.88,-2.16 -1.296,-0.072 -2.7,0.432 -4.5,1.656 C 37.674,0.953 36.594,0.017 35.478,0.017 34.29,0.017 33.21,0.953 31.95,2.825 29.79,1.493 28.134,0.881 26.982,0.989 25.83,1.097 25.038,1.781 24.894,3.329 23.958,1.457 22.842,0.521 21.69,0.521 c -1.26,0 -2.556,0.936 -4.032,2.808 -0.54,-1.224 -1.44,-1.836 -2.556,-1.98 -1.188,-0.216 -2.916,-0.108 -4.356,1.152 -1.548,1.26 -3.024,3.348 -4.572,6.408 -1.836,1.584 -3.024,3.384 -3.96,5.94 -0.936,2.484 -1.224,6.3 -1.296,8.676 -0.144,2.232 0.144,3.636 0.72,4.5 -1.368,0.612 -1.908,1.944 -1.62,3.996 0.252,2.088 1.296,4.752 3.276,8.28 -0.936,0.468 -1.476,1.404 -1.476,3.096 -0.072,1.656 0.36,3.781 1.296,6.66 -1.728,0.611 -2.268,2.232 -2.016,4.859 0.216,2.629 1.62,6.049 3.816,10.656 -1.08,2.197 -0.972,4.5 0.18,6.516 1.224,1.98 3.313,4.068 6.804,5.869 0.396,1.871 1.404,3.385 3.024,4.535 1.584,1.08 3.78,1.801 6.588,2.16 2.34,1.693 4.212,2.232 5.616,2.016 1.332,-0.395 2.34,-1.547 2.736,-3.852 2.016,1.477 3.78,2.305 5.148,2.34 1.368,0.072 2.34,-0.646 3.06,-2.016 1.152,1.691 2.376,2.484 3.672,2.52 1.224,-0.035 2.52,-0.828 3.888,-2.52 0.936,1.943 2.052,2.953 3.348,3.023 1.26,0.037 2.664,-0.863 4.356,-2.699 1.584,0.973 2.736,1.367 3.996,1.188 1.116,-0.252 2.124,-0.936 2.88,-2.34 1.548,1.691 3.096,2.34 4.5,2.34 1.44,-0.035 2.736,-1.115 4.032,-2.844 1.692,1.188 3.096,1.801 4.5,1.836 1.368,-0.035 2.448,-0.648 3.528,-1.836 1.728,1.188 3.132,1.801 4.644,1.836 1.368,-0.035 2.7,-0.648 3.852,-1.836 1.332,1.297 2.664,1.908 3.852,1.836 1.224,-0.145 2.304,-0.828 3.384,-2.34 1.764,1.691 3.168,2.447 4.356,2.664 1.152,0.107 2.052,-0.504 2.7,-1.836 1.224,0.973 2.412,1.332 3.564,1.477 1.152,0.107 2.268,-0.396 3.348,-1.117 1.08,1.152 2.232,1.764 3.6,1.549 1.296,-0.145 2.808,-1.115 4.392,-2.629 0.9,1.225 1.8,1.766 3.132,1.766 1.225,-0.072 2.592,-0.721 4.248,-1.945 1.584,1.584 3.24,2.377 4.824,2.52 1.584,0.109 3.096,-0.432 4.68,-1.764 1.261,1.189 2.484,1.549 3.816,1.477 1.332,-0.18 2.483,-0.973 3.852,-2.377 1.296,1.477 2.664,2.27 4.104,2.232 1.439,-0.072 2.808,-0.863 4.392,-2.375 1.584,1.475 2.916,2.123 4.141,2.088 1.188,-0.107 2.268,-0.9 3.096,-2.52 1.188,0.756 2.231,1.15 3.276,1.188 0.972,-0.037 1.871,-0.432 2.699,-1.188 1.513,0.756 2.88,1.188 4.104,0.898 1.188,-0.287 2.231,-1.08 3.132,-2.375 1.296,0.648 2.52,0.791 3.672,0.576 1.152,-0.324 2.016,-1.008 2.988,-2.197 1.548,0.9 2.916,1.189 4.392,1.01 1.404,-0.254 2.772,-1.08 4.104,-2.484 2.016,0.863 3.636,1.152 5.256,0.719 1.584,-0.504 2.771,-1.584 3.96,-3.383 1.512,0.828 2.844,1.223 4.392,1.043 1.44,-0.215 2.916,-0.863 4.429,-2.088 1.512,0.756 2.735,1.188 3.96,0.9 1.151,-0.18 2.124,-1.08 3.06,-2.305 1.908,1.117 3.672,1.297 5.148,0.828 1.476,-0.611 2.664,-1.871 3.708,-4.068 2.195,0.072 3.744,-0.574 4.5,-1.654 0.756,-1.117 0.863,-2.953 0.18,-5.221 1.728,-0.541 2.628,-1.98 2.7,-4.32 0,-2.412 -0.792,-5.615 -2.521,-9.756 0.973,-1.152 1.62,-2.484 1.8,-3.996 0.181,-1.584 -0.107,-3.276 -0.72,-5.22 1.44,-1.764 2.052,-3.456 1.836,-5.22 -0.288,-1.836 -1.332,-3.6 -3.275,-5.436 0.288,-2.16 -0.145,-3.564 -0.9,-4.5 -0.792,-0.864 -2.304,-1.26 -4.14,-0.9 -0.504,-1.62 -1.513,-2.736 -2.736,-3.348 -1.296,-0.684 -2.952,-0.864 -4.968,-0.54 -1.656,-1.476 -2.88,-2.196 -4.212,-2.448 -1.296,-0.252 -2.376,0.108 -3.385,1.08 -2.088,-1.8 -3.743,-2.7 -5.256,-2.7 -1.548,0 -2.664,0.684 -3.636,2.448 -1.26,-1.728 -2.304,-2.736 -3.42,-3.024 -1.116,-0.288 -2.16,0.036 -3.132,1.116 -1.872,-1.548 -3.313,-2.376 -4.464,-2.484 -1.116,-0.108 -1.944,0.396 -2.34,1.656 -0.864,-1.296 -1.872,-2.124 -3.168,-2.196 -1.368,-0.108 -2.845,0.252 -4.717,1.368 -1.08,-1.512 -2.16,-2.556 -3.636,-2.736 -1.476,-0.36 -3.096,0.144 -5.004,1.116 -0.864,-1.62 -1.908,-2.484 -3.132,-2.736 -1.296,-0.252 -2.736,0.252 -4.464,1.368 -0.757,-1.296 -1.62,-2.124 -2.88,-2.196 -1.225,-0.108 -2.7,0.252 -4.429,1.368 -1.368,-1.872 -2.771,-2.772 -4.212,-2.988 -1.439,-0.144 -2.916,0.396 -4.428,1.908 -1.188,-1.296 -2.269,-1.836 -3.672,-1.908 -1.404,-0.072 -2.844,0.468 -4.464,1.62 -0.648,-0.612 -1.477,-1.188 -2.341,-1.332 -0.972,-0.252 -1.979,-0.252 -3.168,0 -2.304,-1.764 -4.428,-3.168 -6.516,-3.924 -2.16,-0.828 -3.528,-0.972 -6.048,-1.008 -2.736,-0.072 -5.976,0.072 -9.432,0.288 -3.528,0.108 -8.028,0.288 -10.728,0.54 -2.7,0.036 -3.708,-0.108 -4.968,0.54 -1.322,0.684 -2.114,1.764 -2.654,3.384 z" />
          <path
             style="fill:#f4c01c"
             inkscape:connector-curvature="0"
             id="path3125"
             i:knockout="Off"
             d="M 84.87,7.217 C 84.186,5.921 83.25,5.201 82.062,5.057 80.766,4.805 79.362,5.129 77.562,6.029 76.698,4.625 75.834,3.977 74.682,3.941 73.494,3.869 72.306,4.553 70.83,5.849 70.254,4.481 69.498,3.833 68.562,3.761 67.554,3.689 66.366,4.193 64.998,5.417 64.098,4.157 63.018,3.653 62.154,3.617 61.11,3.545 60.282,4.229 59.274,5.381 57.87,3.617 56.538,2.933 55.422,2.789 54.234,2.717 53.262,3.365 52.362,4.877 51.102,3.365 50.022,2.573 48.978,2.645 47.934,2.681 46.926,3.437 46.098,5.057 45.342,3.689 44.478,3.041 43.218,2.969 41.922,2.825 40.518,3.401 38.718,4.553 37.674,2.717 36.594,1.817 35.478,1.853 34.29,1.817 33.21,2.717 31.95,4.553 29.79,3.257 28.134,2.717 26.982,2.789 25.83,2.861 25.038,3.617 24.894,5.057 23.958,3.257 22.842,2.249 21.69,2.321 20.43,2.249 19.134,3.257 17.658,5.057 17.118,3.905 16.218,3.257 15.102,3.113 13.914,2.861 12.186,2.861 10.746,4.229 c -1.512,1.296 -3.06,3.6 -4.644,6.912 -1.476,1.476 -2.448,3.348 -3.06,5.616 -0.684,2.232 -0.72,5.832 -0.648,7.884 0.036,1.908 0.36,3.24 0.972,3.852 -1.368,1.332 -1.944,3.096 -1.584,5.148 0.36,2.124 1.404,4.356 3.528,7.236 -1.116,0.216 -1.656,1.152 -1.62,2.808 0.036,1.62 0.576,3.924 1.764,7.055 -2.232,0.721 -3.348,2.232 -3.06,4.824 0.252,2.484 1.656,5.904 4.356,10.26 -1.116,2.305 -1.224,4.213 -0.324,6.121 0.9,1.836 2.592,3.383 5.472,4.787 0.396,1.764 1.404,3.313 3.024,4.355 1.584,1.01 3.78,1.801 6.588,2.09 2.34,1.547 4.212,2.195 5.616,1.943 1.332,-0.324 2.34,-1.512 2.736,-3.709 2.016,1.441 3.78,2.197 5.148,2.27 1.368,0.035 2.34,-0.613 3.06,-1.945 1.152,1.549 2.376,2.449 3.672,2.412 1.224,0.037 2.52,-0.863 3.888,-2.412 0.936,1.908 2.052,2.773 3.348,2.881 1.26,0 2.664,-0.756 4.356,-2.557 1.584,0.936 2.736,1.26 3.996,1.117 1.116,-0.182 2.124,-0.973 2.88,-2.232 1.548,1.547 3.096,2.34 4.5,2.232 1.44,-0.109 2.736,-0.973 4.032,-2.736 1.692,1.115 3.096,1.799 4.5,1.764 1.368,0.035 2.448,-0.648 3.528,-1.764 1.728,1.115 3.132,1.799 4.644,1.764 1.368,0.035 2.7,-0.648 3.852,-1.764 1.332,1.26 2.664,1.799 3.852,1.764 1.224,-0.072 2.304,-0.863 3.384,-2.232 1.764,1.549 3.168,2.447 4.356,2.557 1.152,0.107 2.052,-0.432 2.7,-1.764 1.224,0.863 2.412,1.332 3.564,1.402 1.152,0.037 2.268,-0.322 3.348,-1.08 1.08,1.189 2.232,1.693 3.6,1.514 1.296,-0.182 2.808,-1.08 4.392,-2.557 0.9,1.188 1.8,1.656 3.132,1.691 1.225,-0.035 2.592,-0.648 4.248,-1.836 1.584,1.477 3.24,2.232 4.824,2.412 1.584,0.107 3.096,-0.504 4.68,-1.691 1.261,1.043 2.484,1.512 3.816,1.404 1.332,-0.18 2.483,-0.938 3.852,-2.27 1.296,1.404 2.664,2.16 4.104,2.125 1.439,-0.035 2.808,-0.793 4.392,-2.268 1.584,1.367 2.916,2.088 4.141,2.016 1.188,-0.107 2.268,-0.863 3.096,-2.412 1.188,0.684 2.231,1.152 3.276,1.115 0.972,0.037 1.871,-0.432 2.699,-1.115 1.513,0.756 2.88,1.08 4.104,0.828 1.188,-0.252 2.231,-1.008 3.132,-2.268 1.296,0.648 2.52,0.791 3.672,0.576 1.152,-0.252 2.016,-1.008 2.988,-2.125 1.548,0.828 2.916,1.152 4.392,0.973 1.404,-0.289 2.772,-1.045 4.104,-2.412 2.016,0.863 3.636,1.152 5.256,0.721 1.584,-0.469 2.771,-1.549 3.96,-3.24 1.512,0.791 2.844,1.115 4.392,0.971 1.44,-0.143 2.916,-0.898 4.429,-1.979 1.62,0.791 2.844,1.08 3.96,0.863 1.044,-0.217 1.8,-1.152 2.412,-2.412 2.411,1.115 4.392,1.439 5.796,0.973 1.403,-0.576 2.304,-1.801 2.699,-3.961 2.412,0 4.068,-0.611 4.824,-1.547 0.756,-1.01 0.756,-2.484 -0.144,-4.43 1.368,-1.008 2.16,-2.699 2.231,-4.932 0.072,-2.375 -0.54,-5.076 -1.836,-8.639 0.612,-2.342 0.828,-4.393 1.044,-6.013 0.181,-1.692 -0.036,-2.952 -0.252,-3.924 1.296,-3.132 1.765,-5.184 1.548,-6.552 -0.359,-1.26 -1.26,-1.836 -3.132,-1.332 0.433,-2.412 0.252,-4.104 -0.54,-5.22 -0.863,-1.152 -2.34,-1.728 -4.428,-1.584 0.036,-1.62 -0.54,-2.7 -1.584,-3.384 -1.188,-0.684 -2.7,-0.864 -4.968,-0.54 -1.656,-1.332 -2.88,-2.16 -4.212,-2.34 -1.296,-0.252 -2.376,0.144 -3.385,1.044 -2.088,-1.764 -3.743,-2.592 -5.256,-2.628 -1.548,-0.108 -2.664,0.72 -3.636,2.34 -1.26,-1.62 -2.304,-2.628 -3.42,-2.88 -1.116,-0.324 -2.16,0.036 -3.132,1.08 -1.872,-1.476 -3.313,-2.268 -4.464,-2.376 -1.116,-0.18 -1.944,0.396 -2.34,1.584 -0.864,-1.26 -1.872,-2.016 -3.168,-2.124 -1.368,-0.108 -2.845,0.288 -4.717,1.332 -1.08,-1.548 -2.16,-2.376 -3.636,-2.628 -1.476,-0.324 -3.096,0.072 -5.004,1.044 -0.864,-1.584 -1.908,-2.412 -3.132,-2.628 -1.296,-0.216 -2.736,0.18 -4.464,1.332 -0.757,-1.296 -1.62,-1.944 -2.88,-2.088 -1.225,-0.144 -2.7,0.288 -4.429,1.296 -1.368,-1.728 -2.771,-2.736 -4.212,-2.88 -1.439,-0.216 -2.916,0.396 -4.428,1.836 -1.188,-1.224 -2.269,-1.836 -3.672,-1.836 -1.404,-0.072 -2.844,0.504 -4.464,1.584 -0.648,-0.612 -1.477,-1.188 -2.341,-1.332 -0.972,-0.252 -1.979,-0.252 -3.168,0 -2.304,-2.052 -4.428,-3.348 -6.516,-4.176 -2.16,-0.864 -3.528,-0.54 -6.048,-0.54 -2.736,-0.144 -5.976,0.18 -9.432,0.288 -3.528,0.108 -8.028,0.324 -10.728,0.504 -2.7,0.144 -3.708,-0.144 -4.968,0.54 -1.322,0.614 -2.114,1.694 -2.654,3.242 z" />
          <path
             inkscape:connector-curvature="0"
             id="path3127"
             i:knockout="Off"
             d="m 5.238,17.945 c 1.872,0.504 3.312,0.54 4.176,0.108 0.864,-0.432 1.296,-1.368 1.152,-2.664 1.332,2.016 2.592,3.024 4.068,3.168 1.368,0.108 2.808,-0.648 4.32,-2.412 1.008,1.62 2.052,2.556 3.42,2.664 1.26,0.108 2.7,-0.612 4.32,-2.016 1.296,1.8 2.556,2.736 3.78,2.664 1.224,-0.072 2.268,-1.044 3.42,-2.916 1.008,1.08 1.944,1.584 3.204,1.656 1.188,0 2.448,-0.468 3.924,-1.404 1.188,1.44 2.448,2.16 3.78,2.16 1.332,-0.072 2.592,-0.792 4.068,-2.304 1.548,1.548 2.952,2.268 4.212,2.304 1.26,-0.036 2.268,-0.756 3.168,-2.304 1.116,1.692 2.16,2.628 3.42,2.664 1.188,0.036 2.448,-0.72 3.78,-2.268 1.836,1.836 3.276,2.772 4.464,2.664 1.152,-0.108 1.908,-1.26 2.412,-3.312 1.728,2.124 3.024,3.096 4.428,3.312 1.26,0.036 2.412,-0.684 3.312,-2.556 1.404,1.692 2.412,2.628 3.42,2.664 0.9,0.036 1.62,-0.756 2.16,-2.376 1.836,1.44 3.132,2.196 4.428,2.268 1.152,0 2.088,-0.54 2.664,-1.908 0.072,0.432 0.288,0.864 0.648,1.152 0.36,0.288 0.648,0.54 1.26,0.756 l -1.512,1.512 c -1.296,-0.504 -2.448,-0.72 -3.456,-0.504 -1.116,0.216 -2.088,0.72 -2.916,1.656 -2.052,-1.404 -3.744,-2.124 -5.076,-2.16 -1.368,-0.072 -2.376,0.432 -3.024,1.656 -2.34,-1.404 -4.032,-2.088 -5.22,-2.052 -1.224,-0.036 -1.8,0.648 -1.872,2.052 -1.224,-1.224 -2.232,-1.872 -3.312,-1.8 -1.044,-0.036 -2.016,0.648 -2.916,1.908 -1.224,-1.188 -2.412,-1.728 -3.564,-1.764 -1.26,0 -2.304,0.504 -3.528,1.656 -2.988,-1.584 -4.896,-2.304 -6.12,-2.304 -1.224,0.036 -1.512,0.792 -1.008,2.412 -1.656,-1.116 -2.916,-1.764 -3.924,-1.656 -1.008,0.072 -1.728,0.612 -2.16,1.908 -1.116,-1.296 -2.124,-1.836 -3.168,-1.908 -1.08,-0.108 -2.052,0.54 -3.06,1.656 -1.368,-1.224 -2.664,-1.728 -4.032,-1.656 -1.368,0.072 -2.808,0.756 -4.176,2.052 -1.476,-1.548 -2.88,-2.268 -4.212,-2.304 -1.404,-0.072 -2.628,0.648 -3.816,2.16 -2.34,-1.404 -4.356,-2.124 -6.192,-2.16 -1.8,-0.108 -3.42,0.54 -4.716,1.8 -1.512,-1.584 -2.772,-2.304 -3.78,-2.304 -1.044,0 -1.944,0.72 -2.556,2.304 -0.18,-0.468 -0.18,-1.188 0,-2.304 0.18,-1.224 0.432,-2.556 0.9,-4.428 0.324,0.936 0.648,1.872 1.008,2.808 z" />
          <path
             inkscape:connector-curvature="0"
             id="path3129"
             i:knockout="Off"
             d="m 7.29,11.969 c 0.612,-0.216 1.152,-0.18 1.764,0.108 0.54,0.288 1.044,0.756 1.512,1.548 1.98,-0.972 3.456,-1.656 4.716,-1.908 1.152,-0.36 1.944,-0.18 2.52,0.108 0.504,0.288 0.9,0.756 0.9,1.548 1.44,-1.296 2.736,-2.196 4.032,-2.556 1.296,-0.36 2.592,-0.324 3.456,0.252 0.648,0.576 0.9,1.548 0.756,3.06 0.972,-1.908 1.98,-2.88 3.168,-2.916 1.152,-0.108 2.232,0.828 3.528,2.664 1.728,-1.908 3.168,-2.88 4.464,-2.916 1.224,-0.108 2.196,0.828 2.916,2.664 2.592,-2.16 4.572,-3.132 5.94,-3.06 1.296,0.072 1.98,1.296 2.052,3.672 0.396,-1.8 1.152,-2.772 2.268,-2.916 1.08,-0.144 2.52,0.54 4.32,2.052 2.376,-2.016 4.14,-2.988 5.436,-2.916 1.188,0.036 1.872,1.08 2.052,3.276 1.8,-2.016 3.06,-2.844 4.32,-2.772 1.152,0.144 1.944,1.188 2.52,3.42 0.288,-2.808 1.224,-4.248 2.412,-4.32 1.188,-0.144 2.844,1.08 4.968,3.672 1.476,-1.764 2.52,-2.556 3.672,-2.52 1.044,0.036 1.836,1.008 2.52,2.916 0.9,-1.62 1.404,-2.628 1.908,-3.168 0.396,-0.612 0.612,-0.612 0.648,-0.144 L 84.654,8.333 c -1.584,1.764 -2.844,2.484 -4.068,2.304 -1.188,-0.252 -2.196,-1.44 -3.024,-3.564 -1.188,1.8 -2.34,2.772 -3.456,2.916 -1.224,0.072 -2.232,-0.612 -3.42,-2.196 -1.476,1.8 -2.7,2.592 -3.672,2.52 C 66.006,10.205 65.25,9.197 64.746,7.289 63.882,8.513 62.946,9.269 62.082,9.413 61.146,9.521 60.174,9.017 59.166,8.045 58.05,9.377 57.042,10.061 55.854,9.953 54.666,9.845 53.442,9.089 52.182,7.541 c -0.756,1.584 -1.692,2.34 -2.664,2.412 -1.008,0 -2.196,-0.72 -3.42,-2.16 -1.584,1.548 -2.988,2.304 -4.212,2.268 -1.26,-0.108 -2.304,-0.9 -3.276,-2.52 -1.872,1.62 -3.348,2.592 -4.572,2.52 -1.296,-0.108 -2.052,-0.864 -2.664,-2.664 -1.224,1.8 -2.232,2.556 -3.312,2.664 -1.08,0.072 -2.088,-0.9 -3.024,-2.52 C 23.706,9.089 22.482,9.845 21.222,9.809 19.926,9.701 18.846,8.909 17.694,7.288 16.11,8.872 14.634,9.664 13.122,9.809 11.61,9.917 10.17,9.377 8.802,8.045 8.082,8.873 7.614,9.629 7.398,10.313 7.11,10.889 7.074,11.573 7.29,11.969 z" />
          <path
             inkscape:connector-curvature="0"
             id="path3131"
             i:knockout="Off"
             d="m 4.626,28.529 c 1.764,-0.144 3.024,-0.576 3.924,-0.9 0.828,-0.432 1.152,-0.936 1.116,-1.512 1.08,1.728 2.304,2.52 4.068,2.772 1.692,0.216 3.636,-0.504 5.976,-1.764 1.512,1.332 2.808,2.052 4.32,2.16 1.368,0.108 2.808,-0.612 4.176,-1.764 1.044,1.404 2.088,2.124 3.564,2.16 1.368,0 2.88,-0.684 4.68,-2.052 1.728,1.44 3.204,2.16 4.428,2.16 1.188,-0.036 2.124,-0.792 2.808,-2.268 1.368,1.584 2.592,2.34 3.672,2.268 1.08,-0.144 1.872,-1.116 2.664,-2.916 1.512,1.584 2.916,2.34 4.068,2.412 1.152,0 2.124,-0.72 2.916,-2.16 1.368,1.188 2.592,1.692 3.672,1.656 1.08,-0.108 1.872,-0.828 2.664,-2.16 1.944,1.656 3.42,2.412 4.572,2.412 1.116,0 1.872,-0.9 2.268,-2.556 1.692,0.756 2.988,1.008 4.176,0.9 1.152,-0.18 1.908,-0.72 2.556,-1.764 2.808,1.548 4.788,2.448 6.228,2.412 1.404,0.036 1.98,-0.864 2.016,-2.412 1.692,1.548 3.132,2.304 4.176,2.412 1.044,0.036 1.728,-0.648 2.052,-2.052 1.116,0.936 2.16,1.404 3.276,1.404 1.044,0 2.016,-0.468 3.06,-1.404 0.18,0.792 0.432,1.296 0.756,1.656 0.252,0.324 0.684,0.36 1.152,0.252 -0.936,-0.072 -1.62,0.144 -2.052,0.504 -0.54,0.36 -0.828,0.864 -0.864,1.656 -0.504,-0.36 -1.188,-0.792 -1.908,-1.008 -0.756,-0.288 -2.016,-0.828 -2.664,-0.648 -0.72,0.072 -1.368,0.504 -1.8,1.296 -2.484,-1.044 -4.212,-1.512 -5.58,-1.404 -1.332,0.036 -2.088,0.72 -2.268,1.908 -1.836,-1.728 -3.312,-2.484 -4.428,-2.412 -1.152,0.072 -2.052,1.08 -2.556,3.024 -1.44,-1.692 -2.7,-2.448 -3.924,-2.268 -1.26,0.144 -2.448,1.188 -3.564,3.276 -1.944,-1.692 -3.24,-2.448 -4.284,-2.412 -0.936,0 -1.62,0.936 -1.656,2.664 -1.332,-1.584 -2.34,-2.34 -3.564,-2.268 -1.152,0.072 -2.34,0.828 -3.42,2.556 -1.836,-1.692 -3.348,-2.448 -4.824,-2.412 -1.476,0 -2.736,0.792 -3.924,2.52 -1.98,-1.476 -3.456,-1.98 -4.572,-1.908 -1.116,0.18 -1.836,0.936 -2.16,2.664 -1.656,-1.728 -2.988,-2.484 -4.428,-2.664 -1.404,-0.072 -2.772,0.432 -3.96,1.908 -1.512,-1.368 -2.988,-1.872 -4.428,-1.656 -1.512,0.252 -2.988,1.224 -4.428,3.06 -0.36,-2.16 -1.296,-3.384 -2.808,-3.816 -1.656,-0.54 -5.112,0.54 -6.336,1.152 -1.26,0.612 -1.548,1.548 -1.008,2.664 C 11.43,32.273 10.638,31.049 9.306,30.185 8.01,29.249 6.498,28.745 4.626,28.529 z" />
          <path
             inkscape:connector-curvature="0"
             id="path3133"
             i:knockout="Off"
             d="m 6.75,39.941 c 1.908,0.864 3.168,1.116 4.32,0.9 1.008,-0.288 1.692,-1.044 1.908,-2.412 1.044,1.332 2.268,2.052 3.816,2.16 1.476,0.072 3.204,-0.576 5.184,-1.8 0.828,1.152 2.016,1.836 3.564,1.908 1.512,0.036 3.276,-0.432 5.436,-1.404 1.116,1.296 2.304,1.764 3.708,1.8 1.44,-0.072 2.772,-0.756 4.536,-2.052 1.26,1.62 2.484,2.34 3.816,2.304 1.296,-0.108 2.556,-1.044 3.924,-2.808 1.836,1.692 3.456,2.448 4.716,2.412 1.26,-0.108 2.232,-1.116 2.916,-3.024 1.836,1.404 3.313,1.98 4.572,2.124 1.224,0.108 2.196,-0.612 2.916,-1.764 1.764,1.044 3.24,1.512 4.428,1.404 1.08,-0.18 2.052,-0.9 2.52,-2.304 1.404,1.656 2.772,2.376 3.96,2.304 1.188,-0.18 2.196,-1.152 3.168,-3.06 1.872,1.404 3.384,2.052 4.68,1.8 1.224,-0.324 2.16,-1.296 2.808,-3.312 1.116,1.332 2.088,2.052 2.916,2.16 0.756,0 1.476,-0.864 2.016,-1.764 0.432,-0.972 0.684,-2.196 0.756,-3.816 0.144,1.656 0.576,2.664 1.152,3.564 0.576,0.72 1.332,1.224 2.268,1.116 0.972,-0.216 1.98,-0.936 3.312,-2.16 1.044,1.152 2.196,1.836 3.06,2.052 0.828,0.216 1.764,-0.18 2.412,-0.9 0.576,0.756 1.116,1.224 1.764,1.404 0.576,0.072 1.26,0.036 1.908,-0.504 -1.188,0.36 -1.944,0.828 -2.412,1.26 -0.468,0.432 -0.504,0.9 -0.252,1.404 -0.72,-0.72 -1.62,-1.188 -2.556,-1.008 -1.008,0.072 -2.196,0.612 -3.42,1.62 -1.476,-1.584 -2.736,-2.34 -4.068,-2.412 -1.332,-0.108 -2.592,0.576 -3.78,2.052 -1.296,-1.188 -2.484,-1.656 -3.708,-1.404 -1.26,0.252 -2.484,1.224 -3.672,2.916 -1.368,-1.404 -2.808,-1.944 -4.032,-1.764 -1.26,0.18 -2.592,1.188 -3.708,3.024 -2.088,-1.116 -3.564,-1.656 -4.572,-1.62 -1.08,0.036 -1.404,0.576 -1.368,1.764 -1.476,-1.224 -2.736,-1.728 -3.924,-1.656 -1.188,0.036 -2.16,0.756 -3.06,2.16 -1.044,-1.404 -2.088,-2.124 -3.42,-2.016 -1.296,0.036 -2.736,0.792 -4.32,2.268 -1.116,-1.188 -2.304,-1.656 -3.42,-1.404 -1.26,0.18 -2.304,1.116 -3.564,2.665 -1.296,-1.548 -2.52,-2.269 -3.672,-2.16 -1.224,0.036 -2.232,0.936 -3.312,2.557 -0.792,-1.477 -1.764,-2.197 -2.916,-2.305 -1.26,-0.108 -2.52,0.54 -4.176,1.8 -0.972,-1.8 -2.196,-2.52 -3.672,-2.556 -1.548,0.036 -3.24,0.756 -5.22,2.556 -1.08,-1.116 -2.16,-1.98 -3.528,-2.304 -1.44,-0.396 -3.564,-0.396 -4.572,0 C 13.878,42.03 13.23,42.894 13.23,44.01 11.718,43.002 10.422,42.354 9.054,42.21 7.65,41.958 6.426,42.174 5.238,42.858 5.094,42.714 5.094,42.462 5.382,41.958 5.594,41.489 6.098,40.769 6.746,39.941 z" />
          <path
             inkscape:connector-curvature="0"
             id="path3135"
             i:knockout="Off"
             d="m 7.29,51.426 c 1.584,0.719 2.628,0.971 3.672,0.756 0.9,-0.217 1.584,-0.938 1.908,-2.018 2.952,1.514 5.184,2.088 6.84,2.125 1.62,0 2.412,-0.936 2.664,-2.412 1.404,1.836 2.7,2.771 4.32,2.951 1.512,0.109 3.06,-0.611 4.788,-2.16 1.584,1.801 3.024,2.736 4.32,2.664 1.296,-0.107 2.304,-1.08 3.313,-3.059 1.296,1.871 2.52,2.988 3.672,3.059 1.044,0.145 2.196,-0.756 3.06,-2.412 1.224,1.621 2.484,2.594 3.78,2.521 1.26,-0.109 2.484,-0.865 3.816,-2.664 2.052,1.332 3.708,1.979 4.968,1.799 1.152,-0.215 1.908,-1.15 2.268,-2.807 2.016,1.188 3.708,1.836 4.932,1.656 1.224,-0.217 2.124,-0.973 2.556,-2.557 0.648,1.225 1.584,1.729 2.664,1.799 1.116,-0.07 2.232,-0.574 3.78,-1.799 2.124,1.367 3.6,1.836 4.968,1.547 1.26,-0.432 2.052,-1.402 2.52,-3.455 0.216,1.404 0.936,2.268 2.16,2.305 1.152,0 2.808,-0.541 4.968,-1.908 1.692,1.043 2.952,1.512 4.32,1.26 1.26,-0.252 2.268,-1.225 3.168,-2.771 1.188,1.008 2.232,1.475 3.276,1.26 1.044,-0.289 1.8,-1.008 2.664,-2.557 2.088,1.619 3.564,2.305 4.716,2.053 1.08,-0.289 1.656,-1.514 1.872,-3.673 1.008,1.008 1.98,1.513 3.06,1.907 1.044,0.289 2.053,0.289 3.168,0 -1.979,0.109 -3.204,0.613 -4.068,1.369 -0.828,0.721 -1.08,1.691 -0.756,3.061 -1.62,-0.828 -2.844,-1.117 -3.672,-1.152 -0.864,0.035 -1.332,0.324 -1.404,1.152 -1.548,-1.045 -2.556,-1.332 -3.42,-1.262 -0.828,0.182 -1.296,0.721 -1.404,2.018 -1.728,-1.225 -3.204,-1.729 -4.284,-1.512 -1.152,0.215 -2.052,1.008 -2.556,2.662 -1.476,-1.402 -2.736,-2.088 -3.924,-2.051 -1.188,0 -2.16,0.721 -3.06,2.16 -1.26,-1.26 -2.304,-1.764 -3.528,-1.656 -1.224,0.145 -2.412,0.9 -3.564,2.412 -2.268,-1.008 -3.78,-1.512 -4.932,-1.369 -1.044,0.072 -1.728,0.793 -1.656,2.018 -1.62,-1.297 -3.06,-1.766 -4.32,-1.26 -1.332,0.467 -2.34,1.764 -3.312,4.031 -0.504,-1.332 -1.26,-2.305 -2.268,-2.629 -1.152,-0.539 -2.916,-0.324 -3.924,0.252 -0.936,0.686 -1.584,1.729 -1.8,3.529 -1.044,-2.377 -2.088,-3.457 -3.42,-3.529 -1.296,-0.107 -2.736,1.08 -4.32,3.277 -1.116,-1.908 -2.16,-2.881 -3.276,-2.916 -1.188,-0.109 -2.16,0.828 -3.312,2.664 -1.188,-1.98 -2.268,-3.168 -3.528,-3.168 -1.296,-0.037 -2.52,0.719 -3.816,2.664 -1.332,-1.369 -2.736,-2.125 -4.068,-2.412 -1.476,-0.361 -3.24,0.035 -4.176,0.756 -0.972,0.719 -1.476,1.691 -1.512,3.311 -1.008,-2.123 -2.16,-3.563 -3.456,-4.176 -1.44,-0.576 -3.6,-0.395 -4.536,0.252 -1.008,0.541 -1.44,1.332 -1.296,2.773 -0.648,-1.729 -1.44,-2.736 -2.52,-3.168 -1.152,-0.434 -3.204,-0.217 -4.068,0.504 -0.864,0.611 -1.332,1.764 -1.26,3.311 C 8.659,55.385 8.191,54.412 7.651,53.693 7.003,52.972 5.491,52.504 5.491,52.289 5.369,51.857 6.017,51.568 7.277,51.426 z" />
          <path
             inkscape:connector-curvature="0"
             id="path3137"
             i:knockout="Off"
             d="m 7.794,65.105 c 0.36,0.035 0.828,-0.037 1.008,-0.504 0.144,-0.469 0.396,-1.189 0.36,-2.16 0.54,1.115 1.26,1.836 2.16,2.303 0.828,0.434 2.124,0.469 3.06,0.109 0.828,-0.576 1.764,-1.621 2.412,-3.277 -0.144,1.836 0.324,3.096 1.404,3.781 1.044,0.539 3.528,0.756 4.932,0.252 1.296,-0.504 2.232,-1.512 2.808,-3.025 0.612,1.297 1.584,2.088 2.916,2.521 1.368,0.324 3.708,0.287 4.932,-0.252 1.116,-0.613 1.656,-1.656 1.764,-3.277 1.368,2.521 2.592,3.816 3.816,4.033 1.152,0.143 2.304,-0.865 3.312,-3.025 0.936,1.225 1.944,1.98 3.024,2.27 1.116,0.252 2.628,-0.145 3.42,-0.504 0.648,-0.434 0.9,-1.152 0.756,-2.018 1.404,1.729 2.628,2.521 4.068,2.664 1.404,0.072 2.628,-0.646 4.068,-2.16 1.26,1.441 2.484,2.16 3.816,2.16 1.296,-0.07 2.556,-0.828 3.924,-2.412 1.908,1.477 3.42,2.197 4.932,2.018 1.404,-0.182 2.628,-1.189 3.672,-3.025 0.396,1.621 1.332,2.412 2.412,2.521 1.08,0 2.52,-0.721 4.32,-2.16 2.088,1.08 3.564,1.547 4.824,1.404 1.188,-0.217 1.908,-0.973 2.304,-2.412 1.944,0.936 3.24,1.332 4.428,0.898 1.044,-0.467 1.764,-1.475 2.016,-3.311 1.044,1.439 2.232,1.943 3.564,1.654 1.332,-0.432 2.592,-1.512 4.176,-3.672 1.368,1.621 2.52,2.342 3.168,2.16 0.612,-0.18 1.008,-1.295 0.9,-3.203 0.972,2.305 1.908,3.24 2.664,3.203 0.72,-0.215 1.26,-1.404 1.764,-3.959 1.44,1.512 2.628,2.195 3.564,2.051 0.937,-0.215 1.477,-1.223 1.908,-3.168 1.728,1.729 3.204,2.521 4.428,2.664 1.225,0.072 2.196,-0.646 2.916,-2.16 2.664,1.908 4.464,2.846 5.832,2.664 1.26,-0.18 1.8,-1.367 1.764,-3.563 1.188,1.26 2.196,1.943 3.421,1.908 1.115,-0.037 2.268,-0.756 3.455,-2.16 2.412,1.836 3.96,2.555 5.076,2.16 1.008,-0.469 1.296,-1.945 1.008,-4.572 1.656,1.475 2.916,2.16 4.177,2.051 1.115,-0.143 2.052,-1.08 2.808,-2.807 1.008,1.188 2.088,1.691 3.384,1.656 1.261,-0.109 2.7,-0.793 4.32,-2.053 1.584,1.691 2.808,2.592 3.816,2.557 1.008,-0.037 1.512,-0.973 1.907,-2.809 1.08,1.547 2.124,2.305 3.276,2.412 1.116,0.072 2.304,-0.648 3.564,-2.016 2.016,2.375 3.527,3.6 4.823,3.672 1.152,-0.037 2.088,-1.225 2.521,-3.564 1.224,1.188 2.376,1.656 3.456,1.547 1.08,-0.18 1.872,-0.936 2.771,-2.41 1.477,1.654 2.916,2.41 4.177,2.268 1.224,-0.217 2.411,-1.225 3.42,-3.168 2.195,1.223 3.888,1.908 5.075,1.656 1.188,-0.252 1.656,-1.225 1.801,-2.916 2.124,1.115 3.636,1.619 4.823,1.654 1.044,-0.035 1.765,-0.684 1.872,-1.799 1.296,1.043 2.305,1.477 3.168,1.295 0.792,-0.215 1.44,-1.15 1.801,-2.664 0.468,1.262 1.151,1.838 1.764,1.873 0.612,0 1.296,-0.541 2.052,-1.764 0.396,1.115 1.116,1.656 2.016,1.764 0.864,0.107 2.053,-0.359 3.421,-1.26 l 0.144,2.916 c -1.692,-0.648 -2.88,-0.9 -3.708,-0.756 -0.828,0.072 -1.296,0.539 -1.26,1.404 -1.225,-0.973 -2.232,-1.441 -3.168,-1.404 -0.937,0.035 -1.692,0.539 -2.269,1.656 -1.943,-0.721 -3.384,-0.973 -4.464,-0.756 -1.151,0.18 -1.656,0.719 -1.908,1.764 -1.332,-1.584 -2.52,-2.088 -3.42,-1.908 -1.008,0.287 -1.764,1.26 -2.268,3.313 -1.692,-1.189 -3.132,-1.693 -4.32,-1.514 -1.224,0.072 -2.196,0.828 -2.916,2.27 -1.62,-1.045 -2.7,-1.332 -3.672,-1.26 -0.936,0.18 -1.62,0.719 -1.908,2.016 -1.872,-1.332 -3.348,-1.98 -4.571,-1.656 -1.297,0.18 -2.053,1.332 -2.664,3.168 -0.792,-0.793 -1.765,-1.225 -2.521,-1.008 -0.936,0.18 -1.656,0.719 -2.556,1.908 -0.792,-1.584 -1.765,-2.557 -2.916,-2.773 -1.26,-0.287 -2.7,0.182 -4.32,1.262 -1.044,-1.152 -2.088,-1.838 -3.275,-1.656 -1.188,0.07 -2.412,0.828 -3.673,2.268 -1.584,-1.439 -2.987,-2.197 -4.212,-2.125 -1.26,-0.035 -2.304,0.721 -3.275,2.27 -1.332,-1.08 -2.34,-1.549 -3.564,-1.262 -1.152,0.217 -2.34,1.189 -3.42,2.773 -1.584,-0.793 -2.844,-1.225 -3.924,-1.008 -1.08,0.18 -1.98,0.719 -2.556,1.908 -1.729,-1.225 -3.204,-1.729 -4.429,-1.514 -1.26,0.217 -2.268,1.008 -3.023,2.664 -2.376,-1.223 -4.284,-1.727 -5.58,-1.656 -1.368,0 -2.269,0.721 -2.557,2.018 -1.332,-1.656 -2.556,-2.412 -3.815,-2.27 -1.296,0.037 -2.556,1.01 -3.78,2.773 -1.584,-1.189 -2.772,-1.512 -3.564,-1.369 -0.864,0.109 -1.188,1.08 -1.26,2.521 -1.404,-1.045 -2.592,-1.332 -3.96,-1.01 -1.368,0.396 -2.664,1.225 -4.032,3.025 -2.16,-1.26 -3.816,-1.801 -4.968,-1.621 -1.224,0.109 -1.944,1.045 -2.16,2.664 -1.62,-0.828 -2.916,-1.043 -4.284,-0.648 -1.368,0.361 -2.592,1.332 -3.672,2.916 -1.512,-1.26 -2.7,-1.764 -3.96,-1.654 -1.26,0.143 -2.304,0.898 -3.276,2.412 -2.052,-1.584 -3.564,-2.27 -4.824,-1.908 -1.296,0.287 -2.052,1.512 -2.556,3.672 -2.016,-1.836 -3.528,-2.629 -4.68,-2.521 -1.152,0.072 -1.908,1.045 -2.268,3.061 -1.692,-1.619 -3.348,-2.375 -4.968,-2.412 -1.728,-0.072 -3.24,0.648 -4.932,2.16 -1.224,-1.943 -2.232,-2.879 -3.312,-2.809 -1.044,-0.035 -2.016,0.938 -2.916,2.916 -2.412,-2.268 -4.176,-3.275 -5.688,-3.168 -1.512,0.109 -2.52,1.332 -3.168,3.816 -1.584,-2.268 -2.844,-3.42 -4.068,-3.313 -1.26,0.037 -2.232,1.225 -3.06,3.564 -2.16,-2.664 -4.068,-3.924 -5.436,-4.068 -1.404,-0.07 -2.556,0.973 -3.168,3.42 -1.404,-1.402 -2.844,-2.123 -4.32,-2.016 -1.548,0.072 -3.024,0.828 -4.572,2.412 -1.404,-1.691 -2.844,-2.664 -4.32,-2.916 -1.512,-0.252 -3.024,0.072 -4.68,1.26 0.348,-0.933 0.744,-1.869 1.14,-2.805 z" />
          <path
             inkscape:connector-curvature="0"
             id="path3139"
             i:knockout="Off"
             d="m 206.3,59.164 c -0.972,-0.971 -1.836,-1.439 -2.736,-1.26 -0.936,0.18 -1.764,0.865 -2.628,2.197 -0.899,-0.938 -1.979,-1.297 -2.951,-0.938 -1.009,0.289 -2.196,1.152 -3.276,2.736 -0.468,-1.115 -1.188,-1.367 -2.304,-1.152 -1.152,0.182 -2.593,1.225 -4.32,2.736 -0.576,-1.08 -1.368,-1.404 -2.521,-1.26 -1.151,0.107 -2.556,0.973 -4.212,2.305 -0.504,-1.045 -1.367,-1.621 -2.447,-1.584 -1.152,-0.072 -2.593,0.467 -4.32,1.475 -0.684,-1.332 -1.512,-2.088 -2.628,-1.871 -1.152,0.035 -2.484,1.045 -3.996,2.629 -0.684,-1.441 -1.512,-2.27 -2.628,-2.342 -1.224,-0.143 -2.448,0.469 -4.104,1.693 -1.728,-1.477 -3.023,-2.016 -4.319,-1.764 -1.296,0.215 -2.305,1.332 -3.168,3.348 -1.62,-1.188 -3.097,-1.764 -4.429,-1.584 -1.367,0.18 -2.592,0.936 -3.672,2.555 -0.792,-0.791 -1.872,-1.115 -2.952,-0.971 -1.151,0.072 -2.447,0.684 -3.888,1.691 -0.792,-0.576 -1.584,-0.756 -2.52,-0.539 -0.973,0.215 -1.944,0.684 -3.061,1.691 -1.224,-1.477 -2.34,-1.98 -3.492,-1.801 -1.26,0.145 -2.195,1.26 -3.348,3.061 -0.756,-1.764 -1.62,-2.484 -2.736,-2.305 -1.224,0.145 -2.34,1.297 -3.888,3.457 -0.072,-1.691 -0.72,-2.592 -1.8,-2.412 -1.152,0.035 -2.809,1.152 -4.968,3.061 -1.224,-1.514 -2.232,-2.197 -3.456,-1.908 -1.224,0.252 -2.376,1.332 -3.6,3.383 -0.864,-1.979 -1.872,-2.916 -3.024,-2.951 -1.188,-0.072 -2.484,0.756 -4.032,2.627 -1.908,-1.115 -3.276,-1.547 -4.5,-1.15 -1.116,0.359 -2.088,1.402 -2.52,3.275 -0.72,-1.367 -1.836,-2.016 -2.952,-1.801 -1.224,0.217 -2.628,1.152 -4.212,2.953 -1.944,-0.648 -3.6,-0.9 -4.968,-0.756 -1.404,0.143 -2.52,0.539 -3.348,1.475 C 75.188,75.688 74,75.04 72.668,75.075 71.3,75.112 69.86,75.831 68.348,77.38 67.16,76.192 65.9,75.616 64.568,75.796 c -1.368,0.18 -2.808,0.973 -4.32,2.52 -0.504,-0.936 -1.512,-1.512 -2.628,-1.439 -1.224,-0.072 -2.736,0.504 -4.536,1.439 -1.692,-1.26 -3.132,-1.764 -4.32,-1.656 -1.296,0.109 -2.34,0.828 -3.132,2.305 -0.18,-1.188 -0.972,-2.016 -2.232,-2.195 -1.332,-0.217 -3.276,-0.072 -5.688,0.719 -1.692,-1.008 -3.204,-1.439 -4.536,-1.152 -1.404,0.252 -2.628,1.08 -3.672,2.629 -1.116,-0.936 -2.124,-1.477 -3.168,-1.477 -1.08,-0.143 -2.376,0.648 -3.06,1.26 -0.72,0.613 -1.296,1.369 -1.44,2.412 -0.252,-1.367 -0.9,-2.375 -1.8,-3.023 -1.044,-0.684 -2.7,-1.08 -3.996,-1.188 -1.332,-0.289 -2.556,-0.252 -3.816,-0.18 0.936,-0.109 1.764,-0.361 2.34,-0.756 0.54,-0.396 0.972,-1.045 1.152,-1.801 2.052,1.619 3.708,2.305 5.256,2.447 1.512,-0.035 2.664,-0.611 3.6,-2.123 2.232,1.512 4.14,2.232 5.58,2.016 1.44,-0.252 2.484,-1.297 3.132,-3.275 0.792,1.295 1.908,1.979 3.06,2.195 1.152,0.145 2.484,-0.324 3.996,-1.26 0.828,1.115 1.908,1.512 3.384,1.584 1.368,-0.107 3.132,-0.541 5.148,-1.691 0.936,1.26 2.088,1.943 3.06,1.908 0.936,-0.072 2.088,-0.721 3.06,-2.088 1.584,1.691 3.096,2.447 4.824,2.41 1.656,-0.107 3.384,-1.008 5.184,-2.844 1.08,1.549 2.232,2.197 3.456,2.088 1.224,-0.143 2.412,-1.043 3.708,-2.844 2.088,1.369 3.816,1.908 5.04,1.908 1.224,-0.035 1.944,-0.9 2.304,-2.303 1.296,1.512 2.52,2.088 3.816,1.871 1.224,-0.359 2.412,-1.367 3.564,-3.457 1.224,1.152 2.412,1.477 3.564,1.369 1.116,-0.145 2.16,-1.115 3.276,-2.52 2.628,1.008 4.536,1.439 6.012,1.15 1.404,-0.322 2.196,-1.223 2.52,-2.844 1.26,0.828 2.556,1.225 3.888,1.045 1.296,-0.18 2.628,-0.793 3.996,-1.98 1.404,1.584 2.52,2.268 3.492,2.195 0.864,-0.107 1.584,-0.971 2.017,-2.734 2.052,1.367 3.743,1.979 4.932,1.691 1.188,-0.287 1.872,-1.332 2.196,-3.275 1.008,1.188 2.088,1.836 3.384,1.799 1.224,-0.035 2.592,-0.756 4.104,-2.016 2.952,0.576 5.148,0.756 6.444,0.541 1.332,-0.324 1.764,-0.865 1.44,-2.018 1.548,0.973 2.844,1.332 4.031,1.369 1.152,-0.109 2.053,-0.541 2.845,-1.584 1.188,0.863 2.34,1.152 3.456,0.863 1.115,-0.359 2.088,-1.26 3.06,-2.844 1.404,0.756 2.484,1.152 3.78,1.045 1.188,-0.145 2.231,-0.793 3.275,-1.801 2.053,1.08 3.744,1.439 4.933,1.477 1.115,0 1.872,-0.721 2.124,-1.766 0.936,1.766 1.907,2.629 3.06,2.736 1.152,0.072 2.196,-0.756 3.564,-2.34 1.655,1.621 3.023,2.305 4.104,2.34 1.08,-0.072 1.656,-0.791 2.124,-2.447 1.729,1.584 3.24,2.375 4.393,2.232 1.151,-0.217 2.088,-1.225 2.663,-3.168 1.765,1.439 2.988,1.943 4.104,1.799 1.008,-0.18 1.62,-1.295 1.979,-3.059 1.513,0.863 2.845,1.26 3.996,1.043 1.044,-0.252 2.089,-0.973 2.736,-2.305 1.872,0.504 3.096,0.758 4.104,0.613 0.863,-0.145 1.367,-0.684 1.367,-1.477 1.872,1.008 3.204,1.297 4.429,1.152 1.08,-0.18 1.907,-1.08 2.34,-2.412 1.188,1.477 2.196,2.053 3.023,1.871 0.757,-0.322 1.404,-1.188 1.801,-3.131 1.403,1.656 2.52,2.375 3.491,2.303 0.9,-0.143 1.513,-1.078 1.98,-2.951 0.324,0.721 0.612,1.332 0.864,1.691 0.18,0.324 0.359,0.541 0.396,0.504 l -1.26,1.584 c -1.656,-0.287 -2.808,-0.432 -3.456,-0.287 -0.72,0.035 -0.936,0.359 -0.648,0.828 -1.8,-0.541 -2.844,-0.611 -3.672,-0.217 -0.756,0.289 -1.115,1.225 -0.936,2.412 -1.152,-1.043 -2.376,-1.727 -3.276,-1.656 -0.88,0.042 -1.89,0.439 -2.57,1.589 z" />
          <path
             inkscape:connector-curvature="0"
             id="path3141"
             i:knockout="Off"
             d="m 145.75,72.342 c -0.36,1.043 -0.937,1.619 -2.016,1.584 -1.116,-0.072 -2.448,-0.758 -4.284,-1.908 -0.324,1.619 -0.864,2.52 -1.908,2.844 -1.044,0.287 -2.448,-0.145 -4.212,-1.152 -1.368,1.295 -2.592,2.053 -3.672,1.871 -1.152,-0.07 -2.088,-1.08 -2.952,-2.627 -0.792,1.943 -1.692,2.988 -2.844,3.275 -1.261,0.252 -2.412,-0.396 -3.996,-1.799 -1.225,1.402 -2.34,2.268 -3.492,2.447 -1.152,0.179 -2.196,-0.217 -3.276,-1.188 -2.052,1.08 -3.564,1.547 -4.824,1.691 -1.188,0 -2.124,-0.324 -2.52,-1.26 -1.512,1.043 -2.808,1.619 -4.032,1.584 -1.332,-0.072 -2.232,-0.756 -3.24,-1.908 -1.08,0.648 -2.052,1.152 -3.06,1.367 -1.008,0.182 -1.908,0.182 -2.844,0 l 0.54,1.908 c 1.008,-1.152 1.944,-1.799 2.952,-1.799 0.9,-0.072 1.836,0.504 2.808,1.584 1.548,-0.721 2.844,-1.08 4.032,-0.938 1.152,0.072 2.16,0.648 3.024,1.584 0.9,-1.26 1.98,-1.764 3.384,-1.906 1.44,-0.037 2.88,0.287 4.86,1.367 0.972,-1.225 2.124,-1.943 3.456,-2.016 1.26,-0.145 2.7,0.287 4.32,1.295 1.691,-1.799 3.312,-2.664 4.859,-2.447 1.549,0.18 2.809,1.297 4.177,3.492 0.107,-1.873 0.72,-3.023 1.691,-3.6 0.9,-0.613 2.988,-0.469 4.032,0 0.936,0.395 1.764,1.043 2.088,2.23 -0.216,-1.078 0.216,-1.906 1.152,-2.34 0.864,-0.504 3.563,-0.719 4.644,-0.504 1.08,0.18 1.548,0.793 1.692,1.693 0.864,-1.045 1.908,-1.729 3.132,-1.908 1.224,-0.289 2.628,-0.109 4.212,0.539 1.332,-0.936 2.592,-1.367 3.924,-1.295 1.261,0.072 2.484,0.504 3.672,1.584 1.513,-1.836 2.593,-2.736 3.78,-2.844 1.08,-0.145 1.908,0.646 2.628,2.23 1.404,-1.691 2.628,-2.627 3.816,-2.951 1.116,-0.359 2.16,0.035 3.132,1.043 0.9,-0.863 1.944,-1.188 3.276,-1.367 1.332,-0.179 2.664,0 4.428,0.541 0.72,-1.621 1.8,-2.484 3.384,-2.736 1.548,-0.289 3.456,0.18 5.868,1.26 0.864,-1.656 1.872,-2.664 3.168,-3.168 1.224,-0.432 3.096,-0.217 4.212,0.215 1.044,0.324 1.584,0.686 1.908,1.477 0.252,-1.691 0.936,-2.844 1.764,-3.6 0.828,-0.828 2.556,-1.188 3.384,-0.936 0.721,0.18 1.188,0.971 1.261,2.23 0.611,-1.836 1.367,-3.023 2.411,-3.707 1.08,-0.611 2.557,-0.721 3.601,-0.324 0.864,0.217 1.512,0.863 1.8,1.801 0,-2.16 0.252,-3.602 1.152,-4.32 0.792,-0.721 2.052,-0.721 3.779,0 -0.684,-0.828 -1.332,-1.512 -1.8,-1.908 -0.54,-0.432 -1.044,-0.721 -1.368,-0.721 -1.008,1.945 -1.836,3.061 -2.628,3.492 -0.827,0.359 -1.476,0 -2.088,-1.08 -1.044,1.621 -2.16,2.449 -2.952,2.629 -0.972,0.143 -1.619,-0.361 -2.34,-1.656 -1.08,1.836 -2.088,2.951 -3.023,3.348 -0.937,0.289 -1.944,0.035 -2.736,-1.152 -1.224,2.268 -2.52,3.529 -3.492,3.781 -1.008,0.18 -2.088,-0.541 -2.844,-2.305 -1.404,1.656 -2.664,2.771 -3.78,2.951 -1.188,0.145 -2.16,-0.252 -3.06,-1.584 -0.973,1.729 -1.944,2.809 -3.061,2.953 -1.224,0.107 -2.231,-0.432 -3.563,-1.908 -0.72,2.123 -1.584,3.24 -2.736,3.492 -1.26,0.215 -2.52,-0.576 -4.212,-2.232 -0.936,1.729 -1.908,2.557 -3.06,2.629 -1.188,0 -2.448,-0.758 -3.78,-2.412 -0.648,1.871 -1.584,3.096 -2.664,3.275 -1.152,0.145 -2.556,-0.359 -4.212,-1.908 -0.18,1.943 -0.792,2.881 -1.98,2.951 -1.26,0.037 -2.844,-0.791 -5.147,-2.627 -1.26,1.764 -2.448,2.736 -3.708,3.061 -1.29,0.327 -2.63,-0.142 -3.99,-1.257 v 0.107 -0.107 z" />
          <path
             inkscape:connector-curvature="0"
             id="path3143"
             i:knockout="Off"
             d="m 220.63,39.221 c -1.116,-1.152 -2.052,-1.836 -2.952,-1.656 -0.936,0 -1.691,0.864 -2.412,2.196 -1.044,-1.476 -1.8,-2.268 -2.412,-2.088 -0.684,0.144 -1.079,0.972 -1.332,2.772 -2.268,-1.584 -3.672,-2.34 -4.607,-2.124 -0.9,0.144 -1.116,1.26 -0.648,3.204 -2.412,-2.484 -4.248,-3.564 -5.363,-3.636 -1.225,0 -1.729,1.008 -1.656,3.42 -0.972,-1.692 -2.088,-2.556 -3.204,-2.736 -1.152,-0.18 -2.448,0.36 -3.744,1.62 -2.7,-1.188 -4.536,-1.656 -5.904,-1.404 -1.26,0.252 -2.052,1.188 -1.979,2.952 -1.908,-1.584 -3.42,-2.376 -4.393,-2.088 -1.044,0.252 -1.548,1.296 -1.655,3.42 -0.504,-1.872 -1.404,-2.916 -2.412,-2.988 -1.152,-0.108 -2.412,0.612 -4.068,2.304 -0.612,-1.692 -1.368,-2.52 -2.412,-2.628 -1.044,-0.072 -2.376,0.576 -3.852,2.088 -1.477,-2.052 -2.664,-3.204 -3.708,-3.06 -1.08,-0.036 -2.017,1.224 -2.664,3.384 -0.504,-1.836 -1.224,-2.916 -2.304,-3.384 -1.116,-0.504 -3.168,-0.144 -4.068,0.54 -1.008,0.648 -1.548,1.692 -1.62,3.276 -0.576,-1.656 -1.296,-2.664 -2.304,-3.168 -1.044,-0.576 -2.844,-0.396 -3.744,0.108 -1.008,0.504 -1.62,1.404 -1.98,2.844 -1.764,-1.188 -2.987,-1.656 -4.067,-1.404 -1.08,0.216 -1.765,1.116 -2.196,2.844 -0.396,-0.972 -0.324,-2.016 0.216,-2.736 0.504,-0.756 1.872,-1.584 2.736,-2.088 0.756,-0.684 1.332,-1.188 1.872,-1.656 1.008,0.72 1.836,1.044 2.88,0.972 0.864,-0.18 1.944,-0.756 2.844,-1.728 0.54,1.044 1.368,1.584 2.628,1.62 1.188,0 2.809,-0.504 4.717,-1.512 1.115,0.936 2.34,1.368 3.527,1.296 1.188,-0.18 2.484,-0.828 3.744,-2.088 0.36,1.332 0.972,2.052 1.98,2.304 0.972,0.18 2.195,-0.216 3.815,-1.188 0.864,1.296 1.908,1.908 2.988,1.98 1.044,0 2.124,-0.54 3.384,-1.764 0.828,1.548 1.944,2.196 3.204,2.088 1.188,-0.144 2.664,-1.044 4.284,-2.844 0.432,1.368 1.296,2.016 2.195,2.088 0.864,0 2.16,-0.576 3.492,-1.872 1.152,1.44 2.124,2.34 3.204,2.304 1.008,0.072 1.944,-0.792 2.952,-2.196 2.124,0.828 3.528,1.188 4.608,1.08 0.899,-0.18 1.476,-0.792 1.332,-1.98 1.439,1.116 2.735,1.62 3.743,1.656 1.009,-0.036 1.729,-0.54 2.305,-1.656 1.26,1.296 2.376,1.908 3.492,1.98 1.115,0 1.943,-0.54 2.88,-1.764 1.044,0.72 1.836,0.972 2.52,0.9 0.612,-0.108 1.08,-0.54 1.404,-1.44 1.008,0.756 1.728,1.044 2.304,1.008 0.504,-0.108 0.72,-0.54 0.792,-1.44 0,0.756 0.18,1.224 0.54,1.548 0.36,0.216 0.792,0.252 1.44,0.108 -0.1,0.792 -0.21,1.584 -0.35,2.412 z" />
          <path
             inkscape:connector-curvature="0"
             id="path3145"
             i:knockout="Off"
             d="m 220.19,29.789 c -0.072,0.144 -0.181,0.468 -0.324,0.972 -0.145,0.504 -0.324,1.152 -0.54,2.088 -0.468,-1.26 -1.116,-2.052 -1.548,-1.98 -0.54,-0.108 -1.044,0.648 -1.512,1.872 -0.864,-1.44 -1.656,-2.232 -2.232,-2.52 -0.648,-0.288 -1.116,0 -1.404,0.864 -1.439,-1.008 -2.556,-1.44 -3.744,-1.296 -1.188,0.144 -2.159,0.792 -3.06,2.088 -2.592,-1.728 -4.392,-2.376 -5.4,-2.34 -1.044,0.144 -1.296,0.972 -0.756,2.88 -1.908,-1.404 -3.42,-2.16 -4.392,-2.412 -1.044,-0.252 -1.548,0.108 -1.656,1.08 -2.052,-1.044 -3.456,-1.476 -4.5,-1.296 -1.044,0.108 -1.548,0.972 -1.656,2.304 -1.403,-0.972 -2.483,-1.44 -3.384,-1.548 -0.936,-0.144 -1.548,0.18 -1.979,0.972 -0.864,-1.224 -1.98,-1.836 -3.204,-1.836 -1.225,-0.072 -2.7,0.468 -4.284,1.62 -1.548,-1.62 -2.772,-2.412 -3.816,-2.52 -1.044,-0.108 -1.908,0.468 -2.447,1.872 -1.404,-1.08 -2.521,-1.548 -3.492,-1.548 -1.044,-0.036 -1.801,0.396 -2.412,1.44 -2.124,-1.26 -3.601,-1.8 -4.824,-1.764 -1.116,0 -1.98,0.576 -2.196,1.872 -1.08,-1.476 -2.231,-2.268 -3.312,-2.088 -1.116,0.036 -2.304,1.044 -3.42,2.736 0,-0.432 -0.288,-0.9 -0.864,-1.404 -0.648,-0.576 -1.548,-1.08 -2.844,-1.656 1.691,0.36 2.987,0.36 4.284,0 1.224,-0.36 2.159,-1.224 2.951,-2.304 0.324,1.476 1.044,2.232 2.305,2.412 1.188,0.072 2.916,-0.432 5.04,-1.656 0.396,0.936 1.224,1.368 2.34,1.44 1.08,-0.036 2.592,-0.432 4.392,-1.332 1.08,0.648 2.196,1.08 3.492,1.008 1.296,0 2.521,-0.504 4.068,-1.224 0.899,1.224 1.872,2.124 3.06,2.304 1.188,0.18 2.412,-0.144 3.96,-0.972 1.656,0.936 2.916,1.404 4.068,1.404 1.08,-0.036 1.872,-0.54 2.52,-1.512 1.692,0.936 2.88,1.404 3.96,1.404 0.9,-0.036 1.692,-0.54 1.98,-1.512 1.188,1.008 2.124,1.512 2.952,1.512 0.828,-0.108 1.403,-0.684 1.872,-1.872 0.468,0.972 1.188,1.44 2.304,1.548 1.008,0.036 2.412,-0.396 4.068,-1.296 1.979,1.08 3.348,1.656 4.5,1.728 1.079,-0.036 1.691,-0.576 1.979,-1.62 1.404,1.044 2.304,1.62 3.096,1.728 0.685,0.036 1.08,-0.396 1.188,-1.296 0.72,0.756 1.656,1.224 2.412,1.548 0.71,0.216 1.65,0.252 2.4,0.108 z" />
          <path
             inkscape:connector-curvature="0"
             id="path3147"
             i:knockout="Off"
             d="m 215.48,23.417 -0.107,1.62 c -1.944,-1.656 -3.313,-2.628 -3.96,-2.628 -0.756,-0.144 -0.828,0.684 -0.216,2.196 -1.296,-1.368 -2.376,-2.268 -3.385,-2.304 -1.008,-0.216 -1.943,0.432 -2.664,1.548 -1.907,-1.512 -3.275,-2.196 -4.392,-2.196 -1.116,-0.036 -1.8,0.612 -2.196,2.088 -0.863,-1.512 -1.619,-2.196 -2.412,-2.196 -0.791,0 -1.476,0.684 -2.195,2.196 -1.404,-1.188 -2.592,-1.908 -3.708,-1.764 -1.152,-0.036 -1.98,0.792 -2.772,2.088 -1.368,-1.44 -2.52,-2.232 -3.6,-2.52 -1.08,-0.288 -2.088,0.036 -2.88,0.972 -2.16,-1.044 -3.672,-1.512 -4.824,-1.404 -1.08,0 -1.8,0.576 -1.872,1.728 -1.008,-1.188 -2.124,-1.764 -3.492,-1.728 -1.403,0 -2.808,0.612 -4.5,1.836 -1.224,-1.98 -2.231,-2.916 -3.312,-2.952 -1.008,-0.036 -2.088,0.828 -2.952,2.736 -0.792,-2.016 -1.692,-3.24 -2.988,-3.276 -1.332,-0.216 -2.771,0.756 -4.607,2.52 -0.828,-1.584 -1.944,-2.484 -2.952,-2.412 -1.188,-0.072 -2.269,0.828 -3.636,2.412 -0.433,-0.936 -1.152,-1.548 -1.765,-1.98 -0.647,-0.432 -1.584,-0.576 -2.412,-0.432 0.396,-1.152 0.864,-1.8 1.548,-1.8 0.648,0.036 1.368,1.512 2.305,1.656 0.899,-0.072 1.872,-0.612 3.06,-1.764 1.332,1.368 2.736,2.196 4.068,2.196 1.26,0.072 2.592,-0.684 3.852,-1.98 0.973,1.08 1.908,1.584 2.952,1.656 1.044,0 2.016,-0.468 3.204,-1.404 0.936,1.584 2.088,2.34 3.06,2.412 1.08,0 1.98,-0.684 3.097,-2.196 1.512,1.188 2.735,1.764 3.815,1.872 1.008,0.036 1.872,-0.396 2.448,-1.44 1.008,0.9 2.016,1.296 2.736,1.188 0.684,-0.18 1.368,-0.792 1.764,-1.98 1.512,1.44 2.736,2.052 3.816,2.232 1.008,0.144 1.728,-0.54 2.304,-1.656 1.944,1.656 3.492,2.484 4.644,2.628 1.044,0.036 1.692,-0.612 1.944,-2.088 1.764,0.972 3.204,1.62 4.752,1.656 1.44,0.108 2.7,-0.396 3.924,-1.224 0.685,0.9 1.692,1.584 2.88,1.656 1.152,0.072 2.628,-0.252 4.284,-0.972 0.181,0.432 0.612,0.792 1.296,1.08 0.612,0.18 1.692,-0.036 2.557,0.324 0.756,0.252 1.439,0.972 2.052,1.332 0.53,0.288 1.14,0.396 1.47,0.468 z" />
          <path
             inkscape:connector-curvature="0"
             id="path3149"
             i:knockout="Off"
             d="m 134.77,11.645 c 0.145,0.828 0.721,1.188 1.332,1.08 0.576,-0.108 1.584,-0.828 2.628,-1.872 1.765,1.728 3.24,2.556 4.717,2.628 1.439,0.036 2.592,-0.684 3.743,-2.304 0.757,1.692 1.765,2.736 3.169,2.988 1.367,0.252 2.88,-0.144 4.823,-1.332 0.576,1.152 1.477,1.98 2.557,2.088 1.115,0.108 2.411,-0.288 4.031,-1.188 2.448,0.72 4.429,1.188 5.94,1.404 1.548,0.144 2.484,0.036 3.096,-0.324 1.368,0.72 2.664,1.08 4.032,1.224 1.368,0.108 2.556,0 3.96,-0.468 l 0.684,1.332 c -1.728,-0.288 -2.808,-0.396 -3.636,-0.324 -0.72,0.072 -1.188,0.324 -1.008,0.756 -1.332,-0.972 -2.448,-1.584 -3.492,-1.548 -1.044,-0.108 -1.872,0.432 -2.628,1.332 -2.412,-1.116 -4.104,-1.584 -5.076,-1.548 -0.972,0.072 -1.224,0.648 -0.756,1.872 -2.16,-1.296 -3.563,-1.944 -4.607,-2.088 -1.044,-0.144 -1.477,0.216 -1.44,1.224 -2.232,-1.152 -3.924,-1.692 -5.364,-1.764 -1.476,-0.072 -2.412,0.324 -3.096,1.332 -1.476,-1.368 -2.628,-2.016 -3.6,-2.088 -0.973,-0.108 -1.62,0.468 -2.089,1.728 -1.584,-1.476 -2.987,-2.304 -4.067,-2.628 -1.152,-0.324 -1.98,-0.144 -2.628,0.684 -0.937,-0.36 -1.62,-0.648 -1.765,-1.008 -0.19,-0.36 -0.01,-0.756 0.57,-1.188 z" />
          <path
             inkscape:connector-curvature="0"
             id="path3151"
             i:knockout="Off"
             d="m 86.202,7.613 c 1.332,1.656 2.268,2.916 2.808,4.176 0.54,1.224 0.612,2.052 0.36,2.88 1.872,-0.756 3.132,-0.432 4.176,0.828 1.008,1.332 1.404,3.42 1.584,6.804 1.512,0.108 2.736,0.72 3.672,1.836 0.9,1.116 1.512,2.592 1.836,4.716 2.124,0.504 3.636,1.512 4.68,2.88 1.008,1.332 1.404,3.024 1.332,5.22 2.268,0 4.32,0.612 6.012,1.836 1.692,1.188 3.276,3.816 4.212,5.256 0.828,1.26 1.08,2.123 0.756,2.592 2.304,0.9 3.528,2.305 4.212,4.213 0.54,1.943 -0.828,4.57 -0.792,7.055 -0.072,2.305 0.792,3.924 0.792,6.805 0,2.809 -1.691,7.703 -0.792,9.973 0.756,2.088 4.896,5.256 5.76,3.131 0.757,-2.232 -0.936,-11.916 -0.792,-15.984 0.145,-4.104 0.721,-7.955 1.584,-8.352 0.721,-0.359 2.376,3.133 2.881,5.76 0.396,2.377 -1.261,8.064 -0.54,9.145 0.72,0.936 4.104,-0.539 4.464,-2.629 0.071,-2.158 -2.916,-5.939 -3.132,-9.684 -0.252,-3.779 0.252,-9.539 2.088,-12.563 1.8,-3.168 6.983,-4.248 8.892,-6.012 1.729,-1.872 2.484,-2.016 1.836,-4.716 -0.828,-2.844 -3.204,-7.848 -6.012,-11.52 -2.88,-3.816 -7.38,-7.272 -10.729,-10.224 -3.42,-2.916 -5.832,-5.868 -9.18,-7.056 -3.492,-1.26 -7.164,-0.432 -11.016,-0.288 -4.068,0.036 -9,0.216 -12.276,0.54 -3.204,0.144 -5.436,-0.108 -6.84,0.504 -1.436,0.502 -2.048,1.51 -1.832,2.878 z" />
          <path
             style="fill:#ffff00"
             inkscape:connector-curvature="0"
             id="path3153"
             i:knockout="Off"
             d="m 87.174,6.497 c 0.792,1.62 1.548,2.952 2.124,4.14 0.576,1.152 1.008,1.908 1.296,2.556 1.8,-0.036 3.096,0.684 4.032,2.016 0.9,1.332 1.188,3.42 1.152,6.12 1.152,-0.072 2.016,0.612 2.988,1.656 0.864,1.044 1.656,2.664 2.376,4.86 1.944,0.288 3.564,1.224 4.572,2.52 0.972,1.368 1.62,3.096 1.656,5.472 2.124,0.072 3.96,0.756 5.652,1.908 1.62,1.08 3.276,3.42 4.284,4.932 0.937,1.44 1.296,2.593 1.225,3.601 2.16,0.863 3.384,2.268 3.96,4.068 0.504,1.871 -0.937,4.283 -0.864,6.84 -0.036,2.375 0.684,4.643 0.792,7.631 0.036,2.881 -0.9,7.92 -0.288,9.865 0.576,1.871 3.132,3.852 3.78,1.654 0.468,-2.375 -0.72,-10.943 -0.504,-15.012 0.18,-4.068 1.151,-8.855 2.088,-9.215 0.864,-0.361 2.808,4.355 3.348,6.947 0.468,2.592 -0.972,6.84 -0.432,8.172 0.468,1.152 2.88,0.613 3.06,-1.225 -0.036,-1.943 -2.34,-6.443 -2.447,-10.188 -0.108,-3.924 0.144,-9.396 2.123,-12.671 1.98,-3.24 7.813,-5.04 9.576,-6.948 1.548,-1.944 1.044,-2.592 0.145,-5.004 -1.008,-2.556 -2.772,-6.588 -5.688,-10.008 -3.023,-3.636 -8.676,-7.884 -11.952,-10.656 -3.312,-2.736 -4.823,-4.572 -7.596,-5.508 -2.88,-1.08 -5.976,-0.612 -9.432,-0.54 -3.528,0.036 -8.568,0.576 -11.52,0.792 -3.096,0.108 -4.896,0 -6.516,0.252 -1.648,0.181 -2.548,0.505 -2.98,0.973 z" />
        </g>
      </g>
      <path
         style="fill:#f7eebf;stroke:none;fill-opacity:1"
         d="M 186.64507,139.45039 31.55137,145.65414 143.21884,43.2923 c 0,0 -18.61125,34.120613 -17.06031,46.528109 1.55094,12.407491 -4.65281,13.958431 6.20375,21.713121 10.85656,7.75468 12.40749,9.30562 12.40749,9.30562 z"
         id="path3214"
         inkscape:connector-curvature="0" />
    </g>
  </g>
</svg>
