<?xml version="1.0" encoding="UTF-8" standalone="no"?>
<!-- Created with Sodipodi ("http://www.sodipodi.com/") -->

<svg
   xmlns:dc="http://purl.org/dc/elements/1.1/"
   xmlns:cc="http://creativecommons.org/ns#"
   xmlns:rdf="http://www.w3.org/1999/02/22-rdf-syntax-ns#"
   xmlns:svg="http://www.w3.org/2000/svg"
   xmlns="http://www.w3.org/2000/svg"
   xmlns:xlink="http://www.w3.org/1999/xlink"
   xmlns:sodipodi="http://sodipodi.sourceforge.net/DTD/sodipodi-0.dtd"
   xmlns:inkscape="http://www.inkscape.org/namespaces/inkscape"
   id="svg602"
   xml:space="preserve"
   viewBox="0 0 255 532.99999"
   sodipodi:version="0.34"
   version="1.1"
   inkscape:version="0.91 r13725"
   sodipodi:docname="shampooooo.svg"
   width="255"
   height="533"><defs
     id="defs604"><linearGradient
       inkscape:collect="always"
       id="linearGradient9495"><stop
         style="stop-color:#2e1010;stop-opacity:1;"
         offset="0"
         id="stop9497" /><stop
         style="stop-color:#2e1010;stop-opacity:0;"
         offset="1"
         id="stop9499" /></linearGradient><linearGradient
       inkscape:collect="always"
       id="linearGradient9445"><stop
         style="stop-color:#c1d9da;stop-opacity:1;"
         offset="0"
         id="stop9447" /><stop
         style="stop-color:#c1d9da;stop-opacity:0;"
         offset="1"
         id="stop9449" /></linearGradient><linearGradient
       inkscape:collect="always"
       id="linearGradient9435"><stop
         style="stop-color:#3a1b5d;stop-opacity:1;"
         offset="0"
         id="stop9437" /><stop
         style="stop-color:#3a1b5d;stop-opacity:0;"
         offset="1"
         id="stop9439" /></linearGradient><linearGradient
       id="linearGradient616"><stop
         id="stop612"
         style="stop-color:#e39700"
         offset="0" /><stop
         id="stop613"
         style="stop-color:#ffffff"
         offset="1" /></linearGradient><linearGradient
       inkscape:collect="always"
       xlink:href="#linearGradient9435"
       id="linearGradient9441"
       x1="269.88809"
       y1="533.98047"
       x2="118.86685"
       y2="532.98993"
       gradientUnits="userSpaceOnUse" /><linearGradient
       inkscape:collect="always"
       xlink:href="#linearGradient9445"
       id="linearGradient9451"
       x1="224.4024"
       y1="469.14496"
       x2="85.70694"
       y2="470.6308"
       gradientUnits="userSpaceOnUse" /><linearGradient
       inkscape:collect="always"
       xlink:href="#linearGradient9495"
       id="linearGradient9501"
       x1="75.091003"
       y1="280.81"
       x2="181.511"
       y2="280.81"
       gradientUnits="userSpaceOnUse" /></defs><sodipodi:namedview
     id="base"
     inkscape:window-x="4"
     inkscape:window-y="1"
     inkscape:window-height="1035"
     inkscape:window-maximized="1"
     inkscape:zoom="0.66635149"
     showgrid="false"
     inkscape:current-layer="g685"
     inkscape:cx="121.67374"
     inkscape:cy="306.18602"
     inkscape:window-width="1916"
     fit-margin-top="0"
     fit-margin-left="0"
     fit-margin-right="0"
     fit-margin-bottom="0" /><g
     id="g685"
     transform="translate(-6.171353,-188.52186)"><g
       id="g660"
       transform="translate(0.62623,-17.5)" /><g
       id="g9507"
       transform="translate(9.0042568,-4.5021284)"><path
         transform="translate(6.2086,1.1897)"
         sodipodi:nodetypes="ccssscccscssscccccccccccccccccccc"
         inkscape:connector-curvature="0"
         id="path628"
         d="m 68.205078,350.23047 c -8.790437,8.6e-4 -17.109512,1.93471 -24.576172,5.37891 -23.764331,7.01446 -41.0644529,29.45921 -41.0644529,56.23046 l 0,247.3711 c 0,32.42 25.3612809,58.51953 56.8632809,58.51953 l 0.0039,0 54.595696,0 3.76368,0 56.29687,0 c 13.94288,0 26.70878,-4.83656 36.74023,-12.91797 15.57087,-10.47647 25.78907,-28.33497 25.78907,-48.69141 l 0,-247.37109 c 0,-32.42 -25.90961,-58.51953 -58.09961,-58.51953 l -50.25196,0 -9.38867,0 -50.666009,0 z m 17.944247,84.15447 c 0.866965,0.0709 2.511984,2.39968 4.775391,6.5254 -2.982777,6.87024 -4.692057,14.43439 -4.839844,22.40039 l -0.644531,-26.74805 c -0.0367,-1.51922 0.208653,-2.21866 0.708984,-2.17774 z M 134.75954,321.89398 c 0.23268,0.56355 0.46265,1.11622 0.69532,1.67969 -2.75677,6.84415 -5.51921,13.70374 -8.31446,20.66797 -0.26057,-0.63085 -0.51692,-1.24658 -0.77734,-1.87695 2.78422,-6.77563 5.58991,-13.62496 8.39648,-20.47071 z m 20.78463,82.81677 c 1.08019,2.18227 2.13647,4.2979 3.05664,6.01172 l -0.88476,36.95898 c -1.32921,-1.95427 -3.0668,-5.09725 -5.16407,-9.28125 2.023,-5.80378 3.14649,-12.00794 3.14649,-18.4707 z"
         style="fill:#744aa8;fill-opacity:1;fill-rule:evenodd;stroke:#000000;stroke-width:5.20340014" /><rect
         x="77.216003"
         y="209.28999"
         width="102.17"
         height="143.03999"
         ry="20.434"
         transform="translate(-0.0134,-0.909)"
         style="fill:#160000;fill-rule:evenodd;stroke:#000000;stroke-width:4.25"
         id="rect633" /><path
         transform="translate(6.2086,1.1897)"
         style="fill:url(#linearGradient9441);fill-opacity:1;fill-rule:evenodd;stroke:#000000;stroke-width:5.20340014"
         d="m 68.205078,350.23047 c -8.790437,8.6e-4 -17.109512,1.93471 -24.576172,5.37891 -23.764331,7.01446 -41.0644529,29.45921 -41.0644529,56.23046 l 0,247.3711 c 0,32.42 25.3612809,58.51953 56.8632809,58.51953 l 0.0039,0 54.595696,0 3.76368,0 56.29687,0 c 13.94288,0 26.70878,-4.83656 36.74023,-12.91797 15.57087,-10.47647 25.78907,-28.33497 25.78907,-48.69141 l 0,-247.37109 c 0,-32.42 -25.90961,-58.51953 -58.09961,-58.51953 l -50.25196,0 -9.38867,0 -50.666009,0 z"
         id="path9425"
         inkscape:connector-curvature="0"
         sodipodi:nodetypes="ccssscccscssscccc" /><rect
         id="rect9493"
         style="fill:url(#linearGradient9501);fill-opacity:1;fill-rule:evenodd;stroke:#000000;stroke-width:4.25"
         transform="translate(-0.0134,-0.909)"
         ry="20.434"
         height="143.03999"
         width="102.17"
         y="209.28999"
         x="77.216003" /><rect
         x="45.577621"
         y="404.31891"
         width="167.44542"
         height="104.88829"
         ry="8.7406921"
         style="fill:#e4fafb;fill-opacity:1;fill-rule:evenodd;stroke:#000000;stroke-width:1.92069626"
         id="rect667" /><rect
         id="rect9443"
         style="fill:url(#linearGradient9451);fill-opacity:1;fill-rule:evenodd;stroke:#000000;stroke-width:1.92069626"
         ry="8.7406921"
         height="104.88829"
         width="167.44542"
         y="404.31891"
         x="45.577621" /><g
         id="text9453"
         style="font-style:normal;font-weight:normal;font-size:38.76072311px;line-height:125%;font-family:sans-serif;letter-spacing:0px;word-spacing:0px;fill:#000000;fill-opacity:1;stroke:none;stroke-width:1px;stroke-linecap:butt;stroke-linejoin:miter;stroke-opacity:1"
         transform="matrix(0.67371115,0,0,1.4843157,-0.9905517,0.49527585)"><path
           inkscape:connector-curvature="0"
           id="path9458"
           d="m 108.03911,321.93727 c -3.65557,1.08371 -12.986059,-3.75008 -7.30201,-6.37712 3.74583,2.30318 11.4796,4.83874 12.52303,-1.55253 -0.6199,-4.75597 -6.57556,-4.9151 -9.91825,-7.06422 -4.054657,-1.82461 -5.422104,-7.19685 -2.79773,-10.75023 3.05336,-4.96645 10.43633,-4.68759 14.80971,-1.83098 3.617,5.75612 -5.08923,2.29315 -7.83915,1.74274 -6.56932,1.35127 -2.16803,9.48239 3.08267,9.1083 5.96601,0.99633 10.00954,8.27648 5.78768,13.32128 -1.91527,2.46837 -5.31784,3.52026 -8.34595,3.40276 z"
           style="font-style:normal;font-variant:normal;font-weight:normal;font-stretch:normal;font-family:'Honoka Antique-Kaku';-inkscape-font-specification:'Honoka Antique-Kaku'" /><path
           inkscape:connector-curvature="0"
           id="path9460"
           d="m 123.44498,321.44519 c 0,-9.51354 0,-19.02707 0,-28.54061 4.47404,-1.66036 4.97345,2.74155 4.50442,5.8833 0,1.92507 0,3.85013 0,5.7752 4.07543,0 8.15085,0 12.22628,0 0,-3.88617 0,-7.77233 0,-11.6585 4.46552,-1.65937 4.92281,2.7629 4.46657,5.8833 0,7.55244 0,15.10487 0,22.65731 -4.46552,1.65937 -4.92281,-2.7629 -4.46657,-5.8833 0,-2.36668 0,-4.73335 0,-7.10003 -4.07543,0 -8.15085,0 -12.22628,0 0,4.32778 0,8.65555 0,12.98333 -1.50147,0 -3.00295,0 -4.50442,0 z"
           style="font-style:normal;font-variant:normal;font-weight:normal;font-stretch:normal;font-family:'Honoka Antique-Kaku';-inkscape-font-specification:'Honoka Antique-Kaku'" /><path
           inkscape:connector-curvature="0"
           id="path9462"
           d="m 156.37646,309.78669 c 2.59919,0 5.19837,0 7.79756,0 -1.71423,-4.0348 -1.64752,-8.87707 -4.22702,-12.48504 -1.08177,4.19174 -2.29141,8.34957 -3.57054,12.48504 z m 11.27997,11.6585 c -0.80751,-2.71275 -1.61503,-5.42549 -2.42254,-8.13824 -3.30577,0 -6.61153,0 -9.9173,0 -0.80751,2.71275 -1.61503,5.42549 -2.42254,8.13824 -4.40785,1.53176 -4.59161,-2.33738 -2.89688,-5.07669 2.59328,-7.82131 5.18655,-15.64261 7.77982,-23.46392 1.72859,0 3.45717,0 5.18576,0 3.15436,9.51354 6.30871,19.02707 9.46307,28.54061 -1.5898,0 -3.17959,0 -4.76939,0 z"
           style="font-style:normal;font-variant:normal;font-weight:normal;font-stretch:normal;font-family:'Honoka Antique-Kaku';-inkscape-font-specification:'Honoka Antique-Kaku'" /><path
           inkscape:connector-curvature="0"
           id="path9464"
           d="m 176.13534,321.44519 c 0,-9.51354 0,-19.02707 0,-28.54061 1.72859,0 3.45717,0 5.18576,0 2.39,6.7311 4.99123,13.3905 7.11622,20.21311 2.47555,-6.70975 4.72845,-13.49902 7.19194,-20.21311 1.7412,0 3.48241,0 5.22361,0 0,9.51354 0,19.02707 0,28.54061 -6.65412,1.7482 -3.54754,-7.49133 -4.20968,-11.1457 -0.19119,-3.29675 0.57335,-10.05184 0.33579,-11.16634 -2.47474,6.48159 -4.70764,13.05197 -7.14112,19.54882 -5.40834,0.36255 -4.26325,-7.22667 -6.64971,-10.46311 -1.17306,-3.22107 -2.31852,-6.45275 -3.38114,-9.71214 0.34947,7.64303 0.43008,15.28914 0.37852,22.93847 -1.35006,0 -2.70013,0 -4.05019,0 z"
           style="font-style:normal;font-variant:normal;font-weight:normal;font-stretch:normal;font-family:'Honoka Antique-Kaku';-inkscape-font-specification:'Honoka Antique-Kaku'" /><path
           inkscape:connector-curvature="0"
           id="path9466"
           d="m 208.30977,321.44519 c 0,-9.51354 0,-19.02707 0,-28.54061 5.84493,0.41412 12.68193,-1.43995 17.52624,2.85199 4.44131,4.73756 1.32255,14.1374 -5.38341,14.55531 -2.60966,1.06467 -8.535,-1.5314 -7.63841,3.24805 0,2.62842 0,5.25684 0,7.88526 -1.50147,0 -3.00295,0 -4.50442,0 z m 4.50442,-14.42171 c 4.887,1.30825 13.48109,-1.62603 9.9685,-7.96516 -2.37926,-3.51434 -11.9387,-4.57714 -9.97311,1.61363 10e-4,2.11717 0.0145,4.23444 0.005,6.35153 z"
           style="font-style:normal;font-variant:normal;font-weight:normal;font-stretch:normal;font-family:'Honoka Antique-Kaku';-inkscape-font-specification:'Honoka Antique-Kaku'" /><path
           inkscape:connector-curvature="0"
           id="path9468"
           d="m 253.24041,317.88708 c -5.48863,7.18881 -18.83879,4.25637 -20.53726,-4.74132 -2.38294,-7.18648 -0.5197,-17.13 7.25448,-20.11713 6.94231,-2.70596 15.72429,2.31045 16.31754,9.9001 1.04005,5.09787 0.35231,10.83418 -3.03476,14.95835 z m -16.8064,-10.82575 c -0.73995,5.12812 3.15031,11.8385 8.9533,10.93458 6.06489,-1.5211 7.67311,-9.08793 6.34294,-14.44295 -0.40401,-5.06605 -5.85779,-8.96074 -10.67641,-6.53338 -3.73525,1.66256 -4.57962,6.40261 -4.61983,10.04175 z"
           style="font-style:normal;font-variant:normal;font-weight:normal;font-stretch:normal;font-family:'Honoka Antique-Kaku';-inkscape-font-specification:'Honoka Antique-Kaku'" /><path
           inkscape:connector-curvature="0"
           id="path9470"
           d="m 282.46237,317.88708 c -5.48863,7.18881 -18.8388,4.25637 -20.53727,-4.74132 -2.38295,-7.18649 -0.51968,-17.12999 7.25449,-20.11713 6.94231,-2.70596 15.72429,2.31045 16.31753,9.9001 1.04024,5.09753 0.35207,10.8345 -3.03475,14.95835 z m -16.80641,-10.82575 c -0.73994,5.12812 3.15032,11.83849 8.95331,10.93458 6.06489,-1.5211 7.67311,-9.08793 6.34294,-14.44295 -0.40401,-5.06605 -5.8578,-8.96074 -10.67642,-6.53338 -3.74446,1.68467 -4.57143,6.37249 -4.61983,10.04175 z"
           style="font-style:normal;font-variant:normal;font-weight:normal;font-stretch:normal;font-family:'Honoka Antique-Kaku';-inkscape-font-specification:'Honoka Antique-Kaku'" /></g></g></g><metadata
     id="metadata17"><rdf:RDF><cc:Work><dc:format>image/svg+xml</dc:format><dc:type
           rdf:resource="http://purl.org/dc/dcmitype/StillImage" /><cc:license
           rdf:resource="http://creativecommons.org/publicdomain/zero/1.0/" /><dc:publisher><cc:Agent
             rdf:about="http://openclipart.org/"><dc:title>Openclipart</dc:title></cc:Agent></dc:publisher><dc:title></dc:title></cc:Work><cc:License
         rdf:about="http://creativecommons.org/publicdomain/zero/1.0/"><cc:permits
           rdf:resource="http://creativecommons.org/ns#Reproduction" /><cc:permits
           rdf:resource="http://creativecommons.org/ns#Distribution" /><cc:permits
           rdf:resource="http://creativecommons.org/ns#DerivativeWorks" /></cc:License></rdf:RDF></metadata></svg>